<?xml version="1.0" encoding="UTF-8"?>
<svg version="1.1" xmlns="http://www.w3.org/2000/svg" width="339" height="341">
<path d="M0 0 C37.29 0 74.58 0 113 0 C114.125 9 114.125 9 112 14 C112.83402344 14.29132812 113.66804687 14.58265625 114.52734375 14.8828125 C121.72474729 17.50454712 127.91057293 20.34902027 134 25 C134.61359375 25.43828125 135.2271875 25.8765625 135.859375 26.328125 C142.36486358 31.3367755 147.59446227 39.14700117 150 47 C149.54103209 50.41981171 148.29981328 52.07512663 145.88891602 54.48339844 C145.23476212 55.14378113 144.58060822 55.80416382 143.90663147 56.48455811 C142.84103249 57.53634247 142.84103249 57.53634247 141.75390625 58.609375 C141.02759506 59.33618469 140.30128387 60.06299438 139.55296326 60.81182861 C138.01733479 62.34511768 136.47801478 63.87471715 134.93530273 65.40087891 C132.56642068 67.74611845 130.21118625 70.10444212 127.85742188 72.46484375 C126.36537491 73.9513158 124.87256224 75.43701976 123.37890625 76.921875 C122.31634361 77.98580475 122.31634361 77.98580475 121.23231506 79.07122803 C120.575009 79.71900208 119.91770294 80.36677612 119.24047852 81.03417969 C118.66169449 81.60835632 118.08291046 82.18253296 117.48658752 82.77410889 C116 84 116 84 114 84 C114.0721875 83.42636719 114.144375 82.85273437 114.21875 82.26171875 C115.90613654 66.81744474 117.68885059 49.92405075 107.4375 37.0625 C101.75898442 31.21415966 94.15344143 27.66108985 86 27 C85.516941 28.39449109 85.03874483 29.79066707 84.5625 31.1875 C84.29566406 31.96480469 84.02882812 32.74210937 83.75390625 33.54296875 C82.23278004 38.50042154 81.8397116 43.12556504 81.7277832 48.30957031 C81.71157425 49.0273616 81.6953653 49.74515289 81.67866516 50.48469543 C81.53878644 57.08255796 81.46038785 63.68168275 81.39974689 70.2807045 C81.35876386 74.70564774 81.29833407 79.12837979 81.19067383 83.55224609 C81.08660935 87.84414075 81.03229819 92.13406461 81.01228905 96.42714691 C80.99641946 98.05555005 80.96333036 99.68388607 80.91213417 101.31156158 C80.48479723 110.65700063 80.48479723 110.65700063 84.18968201 118.97169495 C86.68770432 121.24220509 89.18524628 123.14499711 92 125 C92.98871094 125.82371094 93.97742188 126.64742188 94.99609375 127.49609375 C95.80175781 128.13675781 96.60742188 128.77742187 97.4375 129.4375 C102.27237084 133.3504675 106.87952484 137.46237686 111.45703125 141.671875 C113.57067054 143.60694262 115.70659848 145.50208297 117.875 147.375 C136.17852486 163.35307703 153.26477457 180.36768105 163 203 C163.35964844 203.825 163.71929687 204.65 164.08984375 205.5 C167.54234546 214.91880651 167.59928674 226.87115559 164.1875 236.3125 C154.71906388 255.5922404 135.01094247 264.67393175 116 272 C139.1249311 272.77273903 159.17502364 268.74022199 176.5625 252.625 C177.366875 251.75875 178.17125 250.8925 179 250 C179.88945313 249.13568359 179.88945313 249.13568359 180.796875 248.25390625 C189.10056236 239.74101747 194.65458874 228.35065243 197.4296875 216.8203125 C198 215 198 215 200 213 C204.19741858 212.76241027 207.9096506 213.11997646 212 214 C210.74741587 223.28091351 209.24623009 232.464989 207.46875 241.66015625 C207.23216675 242.89366318 206.9955835 244.1271701 206.75183105 245.39805603 C206.13049659 248.63017632 205.50575733 251.86161678 204.88006592 255.09289551 C204.3703887 257.73418083 203.86692782 260.37663698 203.36330414 263.01908207 C202.75723691 266.19199753 202.14384214 269.36349515 201.53125 272.53515625 C201.19522766 274.3007766 201.19522766 274.3007766 200.85241699 276.10206604 C200.63879517 277.19768356 200.42517334 278.29330109 200.20507812 279.42211914 C200.02013794 280.38138809 199.83519775 281.34065704 199.64465332 282.32899475 C198.99419093 285.02406884 198.05304596 287.44003519 197 290 C195.73387847 290.00496522 195.73387847 290.00496522 194.44217873 290.01003075 C173.83150554 290.09152081 153.22090377 290.18369659 132.61033058 290.28752708 C122.642905 290.33748698 112.67548697 290.38393069 102.70800781 290.421875 C94.01266072 290.4549857 85.31737522 290.49491969 76.62209642 290.54279006 C72.02502082 290.567867 67.42798507 290.58970192 62.83086014 290.60334396 C58.48882816 290.6163374 54.14693421 290.63857046 49.80497932 290.66738319 C48.22579902 290.67632602 46.64659658 290.68211732 45.06739235 290.68421364 C35.21749617 290.69960709 25.59963198 291.32261231 15.82185936 292.5332737 C11.50733154 293.06016478 7.21527363 293.42402233 2.875 293.625 C1.72596191 293.67974487 1.72596191 293.67974487 0.55371094 293.7355957 C-70.55968349 296.75883539 -70.55968349 296.75883539 -95.96484375 275.34375 C-101.89632922 269.82608909 -105.54089457 263.35121242 -106.23828125 255.22265625 C-106.77514825 232.36342441 -93.21041095 216.05377266 -78.3984375 200.21875 C-72.65240817 194.3085484 -66.47445447 189.09020034 -60 184 C-59.03707031 183.22011719 -58.07414062 182.44023437 -57.08203125 181.63671875 C-50.58661642 176.47496324 -43.85347893 171.80120628 -36.875 167.3125 C-35.62976563 166.49978638 -35.62976563 166.49978638 -34.359375 165.6706543 C-33.57820313 165.17734619 -32.79703125 164.68403809 -31.9921875 164.17578125 C-31.29464355 163.73145752 -30.59709961 163.28713379 -29.87841797 162.8293457 C-28 162 -28 162 -25 163 C-25.80050781 163.96486328 -25.80050781 163.96486328 -26.6171875 164.94921875 C-52.10394514 194.65450372 -52.10394514 194.65450372 -61.3984375 231.30859375 C-59.94930214 241.09736102 -53.60729483 247.25295896 -46 253 C-30.64548657 263.72847412 -6.48199552 275.22806643 13 273 C19.5597694 270.43960589 24.71110639 265.16916711 28 259 C30.89551212 252.17252267 31.46404468 245.92312257 31.49926758 238.56445312 C31.52401909 236.9016758 31.52401909 236.9016758 31.54927063 235.20530701 C31.59790844 231.56391296 31.62343982 227.92290214 31.64453125 224.28125 C31.65426153 223.03199234 31.66399181 221.78273468 31.67401695 220.49562073 C31.71950209 214.56948601 31.75390747 208.64346909 31.7700327 202.71719122 C31.7887857 195.90478497 31.85031076 189.09452253 31.94853479 182.28280878 C32.03100443 176.35668811 32.05807841 170.43109418 32.065588 164.50437927 C32.07649152 161.99412732 32.10411361 159.48388864 32.14899635 156.97401428 C33.11195027 143.63800265 33.11195027 143.63800265 28.84335327 131.53320312 C26.32584003 129.23483413 23.97529963 127.636257 21 126 C19.62055762 124.8847242 18.26117802 123.74342247 16.9375 122.5625 C15.97457031 121.71558594 15.97457031 121.71558594 14.9921875 120.8515625 C2.62061589 109.3532783 -9.435505 93.46555377 -10.23828125 75.99609375 C-10.63602974 59.73121256 -6.69018624 46.94712171 4.6875 34.8125 C9.5890819 30.14294564 15.28453118 26.5816938 21 23 C14.90653951 16.54810066 9.70431785 15.06583484 1 14 C0.505 13.505 0.505 13.505 0 13 C0 8.71 0 4.42 0 0 Z M31 43 C28.50382169 46.74426746 28.73936945 49.67375072 28.8125 54 C28.81314453 54.72445312 28.81378906 55.44890625 28.81445312 56.1953125 C28.84092244 59.38339447 28.9855521 61.95665629 30 65 C30.66 65 31.32 65 32 65 C32 57.74 32 50.48 32 43 C31.67 43 31.34 43 31 43 Z M81 181 C80.93019952 189.69335107 80.87703727 198.38660427 80.84456348 207.0801754 C80.82897028 211.11784201 80.80784952 215.15531556 80.77368164 219.19287109 C80.74085978 223.09621681 80.72309939 226.99937793 80.71536827 230.9028511 C80.7098654 232.38505581 80.69912067 233.8672515 80.68280983 235.34937668 C80.59504291 243.66227044 80.89951678 251.17514878 84 259 C93.90845096 257.85162084 102.76026355 251.63041085 109 244 C112.99194664 238.27820982 113.61616974 232.84388529 113 226 C112.27842944 222.86965712 111.22948563 219.96460387 110 217 C109.73316406 216.35417969 109.46632812 215.70835937 109.19140625 215.04296875 C103.57602988 202.78896964 93.03437147 190.0327798 83 181 C82.34 181 81.68 181 81 181 Z " fill="#5370FC" transform="translate(118,19)"/>
<path d="M0 0 C5.46074842 3.88963924 10.4386559 8.14068519 15.3828125 12.6640625 C17.92204999 14.93042671 20.52786083 17.06452392 23.1875 19.1875 C28.57865829 23.54484242 33.61869578 28.2259238 38.65625 32.98486328 C41.77215298 35.92757186 44.89711795 38.81366 48.1875 41.5625 C62.4984475 53.98390682 74.5108898 69.58941903 82 87 C82.35964844 87.825 82.71929687 88.65 83.08984375 89.5 C86.54234546 98.91880651 86.59928674 110.87115559 83.1875 120.3125 C73.71906388 139.5922404 54.01094247 148.67393175 35 156 C58.1249311 156.77273903 78.17502364 152.74022199 95.5625 136.625 C96.366875 135.75875 97.17125 134.8925 98 134 C98.88945313 133.13568359 98.88945313 133.13568359 99.796875 132.25390625 C108.10056236 123.74101747 113.65458874 112.35065243 116.4296875 100.8203125 C117 99 117 99 119 97 C123.19741858 96.76241027 126.9096506 97.11997646 131 98 C129.74741587 107.28091351 128.24623009 116.464989 126.46875 125.66015625 C126.23216675 126.89366318 125.9955835 128.1271701 125.75183105 129.39805603 C125.13049659 132.63017632 124.50575733 135.86161678 123.88006592 139.09289551 C123.3703887 141.73418083 122.86692782 144.37663698 122.36330414 147.01908207 C121.75723691 150.19199753 121.14384214 153.36349515 120.53125 156.53515625 C120.30723511 157.71223648 120.08322021 158.88931671 119.85241699 160.10206604 C119.63879517 161.19768356 119.42517334 162.29330109 119.20507812 163.42211914 C119.02013794 164.38138809 118.83519775 165.34065704 118.64465332 166.32899475 C117.99419093 169.02406884 117.05304596 171.44003519 116 174 C114.73387847 174.00496522 114.73387847 174.00496522 113.44217873 174.01003075 C92.83150554 174.09152081 72.22090377 174.18369659 51.61033058 174.28752708 C41.642905 174.33748698 31.67548697 174.38393069 21.70800781 174.421875 C13.01266072 174.4549857 4.31737522 174.49491969 -4.37790358 174.54279006 C-8.97497918 174.567867 -13.57201493 174.58970192 -18.16913986 174.60334396 C-22.51117184 174.6163374 -26.85306579 174.63857046 -31.19502068 174.66738319 C-32.77420098 174.67632602 -34.35340342 174.68211732 -35.93260765 174.68421364 C-45.78250383 174.69960709 -55.40036802 175.32261231 -65.17814064 176.5332737 C-69.49266846 177.06016478 -73.78472637 177.42402233 -78.125 177.625 C-79.27403809 177.67974487 -79.27403809 177.67974487 -80.44628906 177.7355957 C-151.55968349 180.75883539 -151.55968349 180.75883539 -176.96484375 159.34375 C-182.89632922 153.82608909 -186.54089457 147.35121242 -187.23828125 139.22265625 C-187.77514825 116.36342441 -174.21041095 100.05377266 -159.3984375 84.21875 C-153.65240817 78.3085484 -147.47445447 73.09020034 -141 68 C-140.03707031 67.22011719 -139.07414062 66.44023437 -138.08203125 65.63671875 C-131.58661642 60.47496324 -124.85347893 55.80120628 -117.875 51.3125 C-116.62976563 50.49978638 -116.62976563 50.49978638 -115.359375 49.6706543 C-114.57820313 49.17734619 -113.79703125 48.68403809 -112.9921875 48.17578125 C-112.29464355 47.73145752 -111.59709961 47.28713379 -110.87841797 46.8293457 C-109 46 -109 46 -106 47 C-106.53367187 47.64324219 -107.06734375 48.28648437 -107.6171875 48.94921875 C-133.10394514 78.65450372 -133.10394514 78.65450372 -142.3984375 115.30859375 C-140.94930214 125.09736102 -134.60729483 131.25295896 -127 137 C-112.78929284 146.92927616 -97.72395558 152.21251594 -81 156 C-79.90171875 156.24878906 -78.8034375 156.49757813 -77.671875 156.75390625 C-67.46250982 158.66482146 -56.35738167 158.78087203 -46 158 C-45.67 157.67 -45.34 157.34 -45 157 C-43.21284356 156.79043117 -41.41956231 156.63188384 -39.625 156.5 C-36.47979491 156.26763656 -34.00372093 156.00124031 -31 155 C-29.60560336 154.93334624 -28.20830125 154.91461801 -26.8125 154.9375 C-25.554375 154.958125 -24.29625 154.97875 -23 155 C-23 154.34 -23 153.68 -23 153 C-21.7934375 152.69707031 -20.586875 152.39414062 -19.34375 152.08203125 C-8.49438748 149.44219446 -8.49438748 149.44219446 1.2265625 144.17578125 C3.35326698 142.76578555 5.47726451 141.9918736 7.875 141.125 C17.2436874 137.53607206 25.96999363 131.33546787 30.375 122.125 C31.91291053 114.43544736 30.98830443 108.20556524 28 101 C27.73316406 100.35417969 27.46632812 99.70835937 27.19140625 99.04296875 C22.98886397 89.87208759 16.23166314 82.13118886 9.75 74.5 C9.24275391 73.9004248 8.73550781 73.30084961 8.21289062 72.68310547 C6.14186847 70.28173202 4.25106359 68.18787071 1.703125 66.28125 C0 65 0 65 -1 62 C-1.0938413 60.0269873 -1.12793129 58.05092615 -1.12939453 56.07568359 C-1.13254669 54.85787201 -1.13569885 53.64006042 -1.13894653 52.38534546 C-1.13591019 50.41182602 -1.13591019 50.41182602 -1.1328125 48.3984375 C-1.13348603 47.03748558 -1.13445646 45.67653378 -1.13571167 44.31558228 C-1.13718534 41.46591037 -1.13504402 38.61626983 -1.13037109 35.76660156 C-1.12466315 32.10668643 -1.1279616 28.44684446 -1.13394356 24.78693199 C-1.13754885 21.97833703 -1.13641093 19.16975956 -1.13381577 16.36116409 C-1.13282097 14.35302941 -1.13586641 12.34489405 -1.13894653 10.33676147 C-1.13421829 8.51950058 -1.13421829 8.51950058 -1.12939453 6.66552734 C-1.12859894 5.59313812 -1.12780334 4.5207489 -1.12698364 3.41586304 C-1 1 -1 1 0 0 Z " fill="#FB66A1" transform="translate(199,135)"/>
<path d="M0 0 C37.29 0 74.58 0 113 0 C114.125 9 114.125 9 112 14 C112.83402344 14.29132812 113.66804688 14.58265625 114.52734375 14.8828125 C121.72474729 17.50454712 127.91057293 20.34902027 134 25 C134.61359375 25.43828125 135.2271875 25.8765625 135.859375 26.328125 C142.36486358 31.3367755 147.59446227 39.14700117 150 47 C149.54103209 50.41981171 148.29981328 52.07512663 145.88891602 54.48339844 C145.23476212 55.14378113 144.58060822 55.80416382 143.90663147 56.48455811 C142.84103249 57.53634247 142.84103249 57.53634247 141.75390625 58.609375 C141.02759506 59.33618469 140.30128387 60.06299438 139.55296326 60.81182861 C138.01733479 62.34511768 136.47801478 63.87471715 134.93530273 65.40087891 C132.56642068 67.74611845 130.21118625 70.10444212 127.85742188 72.46484375 C126.36537491 73.9513158 124.87256224 75.43701976 123.37890625 76.921875 C122.31634361 77.98580475 122.31634361 77.98580475 121.23231506 79.07122803 C120.575009 79.71900208 119.91770294 80.36677612 119.24047852 81.03417969 C118.66169449 81.60835632 118.08291046 82.18253296 117.48658752 82.77410889 C116 84 116 84 114 84 C114.10828125 83.13955078 114.10828125 83.13955078 114.21875 82.26171875 C115.90613654 66.81744474 117.68885059 49.92405075 107.4375 37.0625 C102.99072328 32.47442384 97.95037791 30.13493386 92 28 C91.08686035 27.65686768 90.1737207 27.31373535 89.23291016 26.96020508 C83.58744114 25.28344706 77.85070284 25.61872361 72 25.625 C70.69812744 25.62443604 69.39625488 25.62387207 68.05493164 25.62329102 C58.994305 25.72722725 51.45432881 26.62098255 43 30 C42.24847656 30.16757812 41.49695313 30.33515625 40.72265625 30.5078125 C40.15417969 30.67023437 39.58570313 30.83265625 39 31 C38.3162955 32.32467746 37.65035814 33.65863633 37 35 C36.34 35.268125 35.68 35.53625 35 35.8125 C32.59488902 36.94738087 32.59488902 36.94738087 31.8125 40.5 C31.544375 41.655 31.27625 42.81 31 44 C30.505 44.99 30.505 44.99 30 46 C29.87404063 48.53383383 29.8148143 51.02833877 29.8125 53.5625 C29.79413086 54.58053711 29.79413086 54.58053711 29.77539062 55.61914062 C29.76502775 59.28414272 30.0654248 62.25063834 31.00219727 65.83935547 C32.51746322 72.45366393 32.24782667 79.13139427 32.1953125 85.87890625 C32.1915749 87.30093689 32.18873146 88.72297012 32.18673706 90.14500427 C32.17915931 93.85872713 32.15956239 97.57228954 32.1373291 101.28594971 C32.11674326 105.08709545 32.10770831 108.88826752 32.09765625 112.68945312 C32.07630995 120.12637463 32.04224631 127.5631647 32 135 C13.80017498 123.15992338 -4.60135553 103.85535069 -9.6315918 82.09326172 C-12.22866136 67.33694996 -9.29548507 53.89524967 -0.90234375 41.52734375 C5.13175753 33.5107862 12.57963153 28.27676424 21 23 C14.90653951 16.54810066 9.70431785 15.06583484 1 14 C0.67 13.67 0.34 13.34 0 13 C0 8.71 0 4.42 0 0 Z " fill="#FB66A1" transform="translate(118,19)"/>
<path d="M0 0 C3.04599192 0.15488095 5.72326903 0.54975668 8.6875 1.1875 C7.43491587 10.46841351 5.93373009 19.652489 4.15625 28.84765625 C3.91966675 30.08116318 3.6830835 31.3146701 3.43933105 32.58555603 C2.81799659 35.81767632 2.19325733 39.04911678 1.56756592 42.28039551 C1.0578887 44.92168083 0.55442782 47.56413698 0.05080414 50.20658207 C-0.55526309 53.37949753 -1.16865786 56.55099515 -1.78125 59.72265625 C-2.00526489 60.89973648 -2.22927979 62.07681671 -2.46008301 63.28956604 C-2.78051575 64.93299232 -2.78051575 64.93299232 -3.10742188 66.60961914 C-3.38483215 68.04852257 -3.38483215 68.04852257 -3.66784668 69.51649475 C-4.3125 72.1875 -4.3125 72.1875 -6.3125 77.1875 C-57.4625 77.1875 -108.6125 77.1875 -161.3125 77.1875 C-161.3125 76.1975 -161.3125 75.2075 -161.3125 74.1875 C-156.12142433 72.56528885 -151.37716107 72.03508094 -145.9375 71.8125 C-136.78315985 71.38796963 -128.17984672 69.39264861 -119.3125 67.1875 C-117.8647569 66.8378223 -116.41684305 66.48885064 -114.96875 66.140625 C-107.9354219 64.47472953 -107.9354219 64.47472953 -101.01220703 62.41650391 C-94.63347363 60.30453235 -88.88067228 59.76803813 -82.1875 59.6875 C-60.85007305 59.03443557 -42.71283953 54.60732689 -26.75 39.8125 C-25.945625 38.94625 -25.14125 38.08 -24.3125 37.1875 C-23.71953125 36.61128906 -23.1265625 36.03507812 -22.515625 35.44140625 C-14.21193764 26.92851747 -8.65791126 15.53815243 -5.8828125 4.0078125 C-4.78480769 0.50322181 -3.58119904 0.20270938 0 0 Z " fill="#5470F7" transform="translate(321.3125,231.8125)"/>
<path d="M0 0 C37.29 0 74.58 0 113 0 C114.125 9 114.125 9 113 13 C110.56242587 13.02698422 108.12515085 13.04683099 105.6875 13.0625 C104.99720703 13.07087891 104.30691406 13.07925781 103.59570312 13.08789062 C100.4516975 13.10307906 98.00579981 13.00193327 95 12 C90.27547828 11.7583936 85.54259829 11.80553787 80.8125 11.8125 C80.13182465 11.81277191 79.45114929 11.81304382 78.74984741 11.81332397 C62.74719325 11.84287839 47.69574767 12.93126673 32.75 19.125 C28.79918591 20.74038833 25.33187853 22 21 22 C18.5625 20.25 18.5625 20.25 16 18 C11.1398746 15.61637162 6.36483653 14.65691876 1 14 C0.67 13.67 0.34 13.34 0 13 C0 8.71 0 4.42 0 0 Z " fill="#5370FC" transform="translate(118,19)"/>
<path d="M0 0 C3.87898501 0.68959733 7.51564667 1.74908361 11.25 3 C12.30703125 3.350625 13.3640625 3.70125 14.453125 4.0625 C17 5 17 5 18 6 C18.04063832 7.66617115 18.042721 9.33388095 18 11 C17.15115234 11.16435547 17.15115234 11.16435547 16.28515625 11.33203125 C15.55167969 11.49058594 14.81820312 11.64914063 14.0625 11.8125 C13.33160156 11.96332031 12.60070312 12.11414063 11.84765625 12.26953125 C10.93306641 12.63111328 10.93306641 12.63111328 10 13 C9.67 13.99 9.34 14.98 9 16 C5.28944583 18.01430083 2.17148265 18.19402245 -2 18 C-2 18.99 -2 19.98 -2 21 C-1.34 20.67 -0.68 20.34 0 20 C1.86352539 19.96240234 1.86352539 19.96240234 4.09765625 20.0859375 C4.89880859 20.12976563 5.69996094 20.17359375 6.52539062 20.21875 C7.78125977 20.29609375 7.78125977 20.29609375 9.0625 20.375 C9.90361328 20.41882813 10.74472656 20.46265625 11.61132812 20.5078125 C17.87098348 20.87098348 17.87098348 20.87098348 19 22 C19.07205511 23.68608966 19.08386068 25.37500659 19.0625 27.0625 C19.05347656 27.98160156 19.04445312 28.90070313 19.03515625 29.84765625 C19.02355469 30.55792969 19.01195312 31.26820313 19 32 C18.34 32 17.68 32 17 32 C16.67 33.32 16.34 34.64 16 36 C11.71 36.66 7.42 37.32 3 38 C3 38.66 3 39.32 3 40 C4.60681641 40.09087891 4.60681641 40.09087891 6.24609375 40.18359375 C7.64324391 40.26798537 9.04037857 40.35263406 10.4375 40.4375 C11.14455078 40.47681641 11.85160156 40.51613281 12.58007812 40.55664062 C17.88671875 40.88671875 17.88671875 40.88671875 19 42 C19.04063832 43.66617115 19.042721 45.33388095 19 47 C15.535 48.98 15.535 48.98 12 51 C14.31 51.33 16.62 51.66 19 52 C19 53.65 19 55.3 19 57 C12.4 57 5.8 57 -1 57 C-1.33 56.01 -1.66 55.02 -2 54 C-2.15855469 54.56589844 -2.31710938 55.13179688 -2.48046875 55.71484375 C-3.18421335 57.92716792 -3.90195225 59.95264403 -5 62 C-7.375 62.6875 -7.375 62.6875 -10 63 C-11.2375 64.2684375 -11.2375 64.2684375 -12.5 65.5625 C-15 68 -15 68 -17.8125 68.3125 C-18.534375 68.209375 -19.25625 68.10625 -20 68 C-19.29875 67.360625 -18.5975 66.72125 -17.875 66.0625 C-13.64856774 61.84814326 -9.89116496 56.67349488 -8 51 C-7.01 50.505 -7.01 50.505 -6 50 C-4.83719236 45.15832977 -4.78994457 40.27346031 -4.68359375 35.3203125 C-4.66281265 34.50754852 -4.64203156 33.69478455 -4.62062073 32.85739136 C-4.55562421 30.28000743 -4.49647407 27.70252806 -4.4375 25.125 C-4.39426723 23.36978209 -4.35065148 21.61457357 -4.30664062 19.859375 C-4.19999451 15.57301262 -4.09858886 11.28655496 -4 7 C-3.01 6.67 -2.02 6.34 -1 6 C-0.67 4.02 -0.34 2.04 0 0 Z " fill="#536CF1" transform="translate(156,222)"/>
<path d="M0 0 C0.74886475 0.00523682 1.49772949 0.01047363 2.26928711 0.01586914 C3.07817383 0.0190918 3.88706055 0.02231445 4.72045898 0.02563477 C5.5705957 0.03401367 6.42073242 0.04239258 7.29663086 0.05102539 C8.15063477 0.05553711 9.00463867 0.06004883 9.88452148 0.06469727 C12.00108749 0.07652166 14.11761771 0.0944577 16.23413086 0.11352539 C16.26109451 1.90511028 16.28051003 3.69681013 16.29663086 5.48852539 C16.30823242 6.48625977 16.31983398 7.48399414 16.33178711 8.51196289 C16.23413086 11.11352539 16.23413086 11.11352539 15.23413086 13.11352539 C14.57413086 13.11352539 13.91413086 13.11352539 13.23413086 13.11352539 C13.23413086 14.76352539 13.23413086 16.41352539 13.23413086 18.11352539 C13.89413086 18.11352539 14.55413086 18.11352539 15.23413086 18.11352539 C16.81822872 28.94532967 16.81822872 28.94532967 14.23413086 34.11352539 C13.24413086 34.77352539 12.25413086 35.43352539 11.23413086 36.11352539 C12.55413086 36.77352539 13.87413086 37.43352539 15.23413086 38.11352539 C15.23413086 39.76352539 15.23413086 41.41352539 15.23413086 43.11352539 C8.79913086 43.60852539 8.79913086 43.60852539 2.23413086 44.11352539 C2.23413086 45.43352539 2.23413086 46.75352539 2.23413086 48.11352539 C6.52413086 48.44352539 10.81413086 48.77352539 15.23413086 49.11352539 C15.23413086 50.43352539 15.23413086 51.75352539 15.23413086 53.11352539 C12.81678544 53.1947049 10.40218137 53.25409465 7.98413086 53.30102539 C7.3022168 53.32616211 6.62030273 53.35129883 5.91772461 53.37719727 C2.90702592 53.42104239 0.60632586 53.29284451 -2.12524414 51.97680664 C-6.83903789 46.62328374 -6.06829296 39.57377438 -6.01586914 32.86352539 C-6.02360352 31.85805664 -6.03133789 30.85258789 -6.03930664 29.81665039 C-6.03672852 28.85758789 -6.03415039 27.89852539 -6.03149414 26.91040039 C-6.02923828 26.03738281 -6.02698242 25.16436523 -6.0246582 24.26489258 C-5.76586914 22.11352539 -5.76586914 22.11352539 -3.76586914 20.11352539 C-2.77586914 20.11352539 -1.78586914 20.11352539 -0.76586914 20.11352539 C-0.76586914 18.79352539 -0.76586914 17.47352539 -0.76586914 16.11352539 C2.53413086 15.78352539 5.83413086 15.45352539 9.23413086 15.11352539 C9.23413086 14.12352539 9.23413086 13.13352539 9.23413086 12.11352539 C7.58413086 12.11352539 5.93413086 12.11352539 4.23413086 12.11352539 C4.23413086 9.80352539 4.23413086 7.49352539 4.23413086 5.11352539 C3.57413086 5.11352539 2.91413086 5.11352539 2.23413086 5.11352539 C2.23413086 7.42352539 2.23413086 9.73352539 2.23413086 12.11352539 C0.58413086 12.11352539 -1.06586914 12.11352539 -2.76586914 12.11352539 C-2.79274193 10.30110487 -2.8122063 8.48857306 -2.82836914 6.67602539 C-2.8399707 5.66668945 -2.85157227 4.65735352 -2.86352539 3.61743164 C-2.72928321 0.17546201 -2.72928321 0.17546201 0 0 Z " fill="#506AEC" transform="translate(158.765869140625,82.886474609375)"/>
<path d="M0 0 C5.94 0 11.88 0 18 0 C18.28571429 11.71428571 18.28571429 11.71428571 16 17 C16.66 17 17.32 17 18 17 C18 20.96 18 24.92 18 29 C17.01 29 16.02 29 15 29 C15 27.02 15 25.04 15 23 C13.68 23 12.36 23 11 23 C11 24.98 11 26.96 11 29 C10.01 29 9.02 29 8 29 C8 27.02 8 25.04 8 23 C6.68 23 5.36 23 4 23 C4 25.64 4 28.28 4 31 C2.68 31 1.36 31 0 31 C-0.19956481 27.52141784 -0.38240361 24.0421401 -0.5625 20.5625 C-0.61857422 19.58861328 -0.67464844 18.61472656 -0.73242188 17.61132812 C-1.0343548 11.59279841 -0.83345928 5.97003796 0 0 Z " fill="#4C62DD" transform="translate(156,143)"/>
<path d="M0 0 C1.35341407 2.70682815 0.60846474 4.05354923 0 7 C-0.11265574 9.19023012 -0.17581033 11.38324498 -0.20532227 13.57617188 C-0.2152162 14.22155757 -0.22511013 14.86694326 -0.23530388 15.5318861 C-0.26692356 17.67747053 -0.2917614 19.82307496 -0.31640625 21.96875 C-0.33717013 23.49730356 -0.35826012 25.02585271 -0.37965393 26.55439758 C-0.4357599 30.67647129 -0.48522937 34.79859806 -0.53263092 38.92078018 C-0.56261646 41.51005622 -0.59397528 44.09931249 -0.62567139 46.68856812 C-1.16754875 91.28725745 -1.17740854 135.87437668 -0.6521225 180.47338486 C-0.62520553 182.85680097 -0.60150132 185.24022924 -0.57867432 187.62368774 C-0.54226435 191.36168424 -0.4959637 195.09943334 -0.44206238 198.83721733 C-0.42364237 200.2137707 -0.40840659 201.59037099 -0.3966217 202.96699715 C-0.33663432 209.69078015 -0.16461508 215.62116689 2 222 C2 223.32 2 224.64 2 226 C1.01 226.33 0.02 226.66 -1 227 C-1.12117187 226.22914063 -1.24234375 225.45828125 -1.3671875 224.6640625 C-1.53476563 223.66117188 -1.70234375 222.65828125 -1.875 221.625 C-2.03742188 220.62726563 -2.19984375 219.62953125 -2.3671875 218.6015625 C-2.7958802 215.8574885 -2.7958802 215.8574885 -5 214 C-4.34 214 -3.68 214 -3 214 C-3.00276538 212.94570549 -3.00553076 211.89141098 -3.00837994 210.80516815 C-3.07498519 185.14923215 -3.12428043 159.49330737 -3.15543652 133.83730316 C-3.17090391 121.43024116 -3.1919911 109.02323628 -3.22631836 96.61621094 C-3.25622449 85.80197248 -3.27557593 74.98777539 -3.28226548 64.17349672 C-3.28617566 58.44767924 -3.29536266 52.72198011 -3.31719017 46.99620056 C-3.33757438 41.60527595 -3.34382983 36.2145183 -3.33932304 30.82355881 C-3.34014737 28.84668953 -3.34610142 26.86981458 -3.35761642 24.89297867 C-3.37259076 22.18931294 -3.36893559 19.48627367 -3.36076355 16.78259277 C-3.36950207 16.00436016 -3.3782406 15.22612754 -3.38724393 14.42431211 C-3.34319605 9.0151912 -2.13034499 4.97613902 0 0 Z " fill="#6F79E1" transform="translate(200,53)"/>
<path d="M0 0 C6.27 0 12.54 0 19 0 C19 1.98 19 3.96 19 6 C14.71 6 10.42 6 6 6 C6.33 8.97 6.66 11.94 7 15 C10.63 15.33 14.26 15.66 18 16 C18 19.63 18 23.26 18 27 C17.01 27 16.02 27 15 27 C15 25.02 15 23.04 15 21 C13.68 21 12.36 21 11 21 C11 22.98 11 24.96 11 27 C10.01 27 9.02 27 8 27 C8 25.02 8 23.04 8 21 C6.68 21 5.36 21 4 21 C4 23.31 4 25.62 4 28 C2.68 28 1.36 28 0 28 C0 23.71 0 19.42 0 15 C1.32 15 2.64 15 4 15 C4 14.34 4 13.68 4 13 C2.68 13 1.36 13 0 13 C0 8.71 0 4.42 0 0 Z " fill="#4151BC" transform="translate(156,189)"/>
<path d="M0 0 C0.66 0.33 1.32 0.66 2 1 C1.01 1.66 0.02 2.32 -1 3 C-1.28324941 5.46761 -1.36803564 7.68280507 -1.32470703 10.15112305 C-1.32356148 10.89903358 -1.32241592 11.64694412 -1.32123566 12.41751862 C-1.31400405 14.94918467 -1.28553042 17.48020017 -1.2578125 20.01171875 C-1.24927922 21.83693316 -1.24227015 23.66215523 -1.23666382 25.48738098 C-1.22210879 29.45651881 -1.19891602 33.42547824 -1.16918945 37.39453125 C-1.0980164 47.05404075 -1.07337871 56.71371083 -1.04813385 66.37343216 C-1.04204221 68.66973635 -1.03543807 70.96603923 -1.0283432 73.26234055 C-0.94094108 102.33167397 -1.19286499 131.39738324 -1.46266937 160.46512222 C-1.50023018 164.51339366 -1.53684788 168.56167331 -1.57330322 172.60995483 C-1.70977609 187.74002671 -1.85164368 202.87004003 -2 218 C-2.66 218.33 -3.32 218.66 -4 219 C-3.99907821 218.06239775 -3.99815641 217.12479549 -3.99720669 216.15878105 C-3.97501124 193.34924363 -3.95857617 170.53970761 -3.94818783 147.73016167 C-3.94303063 136.69966117 -3.93599888 125.6691678 -3.92456055 114.63867188 C-3.91459614 105.02496846 -3.90814237 95.4112702 -3.90591151 85.79756176 C-3.90460739 80.70677941 -3.9015404 75.61601184 -3.89426994 70.52523422 C-3.88748205 65.73352073 -3.8853887 60.94182809 -3.88689232 56.15011024 C-3.88661724 54.39171676 -3.88462854 52.63332257 -3.88079453 50.87493324 C-3.87581405 48.4729015 -3.8770178 46.07094838 -3.87974548 43.66891479 C-3.87683264 42.97434831 -3.8739198 42.27978182 -3.87091869 41.56416786 C-3.88305045 37.60722739 -4.2413432 33.88305079 -5 30 C-4.34 30 -3.68 30 -3 30 C-3.01571045 29.16227051 -3.0314209 28.32454102 -3.04760742 27.46142578 C-3.09870007 24.35663123 -3.13633234 21.25205069 -3.16479492 18.14697266 C-3.18732251 16.14080626 -3.2254357 14.13483474 -3.26367188 12.12890625 C-3.27333984 10.87207031 -3.28300781 9.61523438 -3.29296875 8.3203125 C-3.3086792 7.15773926 -3.32438965 5.99516602 -3.34057617 4.79736328 C-3.22818604 3.8742334 -3.1157959 2.95110352 -3 2 C-2.01 1.34 -1.02 0.68 0 0 Z " fill="#787DDF" transform="translate(153,54)"/>
<path d="M0 0 C0.85174805 -0.02151123 1.70349609 -0.04302246 2.58105469 -0.06518555 C8.14121175 -0.09399747 11.77253466 0.78572662 16.75 3.25 C18.28468658 3.75107275 19.82560376 4.23394946 21.375 4.6875 C29.86188957 7.51168454 34.95328648 14.41192464 39.32104492 21.96777344 C40.90575539 25.60776105 41.17423666 28.22549707 41.26171875 32.1796875 C41.29716797 33.46875 41.33261719 34.7578125 41.36914062 36.0859375 C41.39223493 37.43228642 41.41501755 38.77864072 41.4375 40.125 C41.47070883 41.49482371 41.50520175 42.86461692 41.54101562 44.234375 C41.62330159 47.5728341 41.69251928 50.91103685 41.75 54.25 C42.348125 53.59 42.94625 52.93 43.5625 52.25 C45.75 50.25 45.75 50.25 48.75 50.25 C49.08 48.93 49.41 47.61 49.75 46.25 C50.41 46.25 51.07 46.25 51.75 46.25 C51.75 45.59 51.75 44.93 51.75 44.25 C53.5625 42.5625 53.5625 42.5625 55.75 41.25 C57.235 41.745 57.235 41.745 58.75 42.25 C55.63307091 45.42469938 52.50516454 48.58835392 49.375 51.75 C48.04082031 53.10931641 48.04082031 53.10931641 46.6796875 54.49609375 C45.82890625 55.35332031 44.978125 56.21054688 44.1015625 57.09375 C42.92327881 58.28774414 42.92327881 58.28774414 41.72119141 59.50585938 C39.75 61.25 39.75 61.25 37.75 61.25 C37.8221875 60.67636719 37.894375 60.10273437 37.96875 59.51171875 C39.65613654 44.06744474 41.43885059 27.17405075 31.1875 14.3125 C26.74072328 9.72442384 21.70037791 7.38493386 15.75 5.25 C14.83903564 4.90614258 13.92807129 4.56228516 12.98950195 4.20800781 C7.28366215 2.5206376 1.47183636 2.92265988 -4.4375 2.9375 C-5.70142578 2.92138672 -6.96535156 2.90527344 -8.26757812 2.88867188 C-16.06831533 2.88463632 -22.85853853 3.72046061 -30.25 6.25 C-28.8013433 3.3526866 -26.58595001 2.93446158 -23.6484375 1.9140625 C-16.01554523 -0.19927901 -7.86558321 0.11668093 0 0 Z " fill="#D673B3" transform="translate(194.25,41.75)"/>
<path d="M0 0 C6.27 0 12.54 0 19 0 C19 3.3 19 6.6 19 10 C18.34 10 17.68 10 17 10 C16.67 11.32 16.34 12.64 16 14 C12.66914012 14.06531098 9.58200765 14.12181556 6.3125 13.4375 C3.83606542 12.96898535 2.36684269 13.21105244 0 14 C0 12.35 0 10.7 0 9 C1.98 8.34 3.96 7.68 6 7 C6 6.34 6 5.68 6 5 C4.02 5 2.04 5 0 5 C0 3.35 0 1.7 0 0 Z " fill="#262A76" transform="translate(156,244)"/>
<path d="M0 0 C6.27 0 12.54 0 19 0 C19 1.65 19 3.3 19 5 C16.69 6.32 14.38 7.64 12 9 C14.31 9.33 16.62 9.66 19 10 C19 11.65 19 13.3 19 15 C12.73 15 6.46 15 0 15 C1 10 1 10 4.0625 7.6875 C5.031875 7.130625 6.00125 6.57375 7 6 C4.69 5.34 2.38 4.68 0 4 C0 2.68 0 1.36 0 0 Z " fill="#262A74" transform="translate(156,264)"/>
<path d="M0 0 C0.67737213 -0.00099701 1.35474426 -0.00199402 2.05264282 -0.00302124 C13.62171845 -0.00109385 13.62171845 -0.00109385 17.1875 1.1875 C19.26904515 1.33939654 21.35290451 1.46069417 23.4375 1.5625 C28.71795097 1.92239666 32.53911039 2.70115207 37.1875 5.1875 C33.92052745 6.27649085 32.02027746 6.14705464 28.625 5.8125 C27.65433594 5.72226562 26.68367188 5.63203125 25.68359375 5.5390625 C23.1875 5.1875 23.1875 5.1875 21.1875 4.1875 C17.23977376 3.81854601 13.27374764 3.71892557 9.3125 3.5625 C7.65927734 3.48515625 7.65927734 3.48515625 5.97265625 3.40625 C4.91175781 3.36242188 3.85085937 3.31859375 2.7578125 3.2734375 C1.78602051 3.2326709 0.81422852 3.1919043 -0.18701172 3.14990234 C-2.61993567 3.18474243 -4.47945922 3.57576825 -6.8125 4.1875 C-8.27142965 4.23296001 -9.73254231 4.22720955 -11.19140625 4.1796875 C-23.46736082 3.834943 -23.46736082 3.834943 -35.40625 6.39453125 C-38.84376903 7.52735002 -42.34941136 8.06979605 -45.9140625 8.66015625 C-46.54054687 8.83417969 -47.16703125 9.00820313 -47.8125 9.1875 C-48.1425 9.8475 -48.4725 10.5075 -48.8125 11.1875 C-50.5546875 12.0390625 -50.5546875 12.0390625 -52.6875 12.8125 C-53.38617188 13.07289062 -54.08484375 13.33328125 -54.8046875 13.6015625 C-56.8125 14.1875 -56.8125 14.1875 -59.8125 14.1875 C-59.4825 13.1975 -59.1525 12.2075 -58.8125 11.1875 C-56.34837812 10.03637737 -53.99387266 9.08165206 -51.4375 8.1875 C-50.70724609 7.92549805 -49.97699219 7.66349609 -49.22460938 7.39355469 C-32.81088912 1.58729153 -17.3245416 0.00692069 0 0 Z " fill="#DC69B7" transform="translate(198.8125,29.8125)"/>
<path d="M0 0 C5.94 0 11.88 0 18 0 C18.29296875 8.3984375 18.29296875 8.3984375 18 11 C14.2632157 13.49118953 12.25548181 13.2065226 7.8125 13.125 C6.54019531 13.10695312 5.26789063 13.08890625 3.95703125 13.0703125 C2.49330078 13.03550781 2.49330078 13.03550781 1 13 C1 11.35 1 9.7 1 8 C2.65 7.67 4.3 7.34 6 7 C6 6.01 6 5.02 6 4 C4.02 4 2.04 4 0 4 C0 2.68 0 1.36 0 0 Z " fill="#1E1D5D" transform="translate(156,143)"/>
<path d="M0 0 C0.74886475 0.00523682 1.49772949 0.01047363 2.26928711 0.01586914 C3.07817383 0.0190918 3.88706055 0.02231445 4.72045898 0.02563477 C5.5705957 0.03401367 6.42073242 0.04239258 7.29663086 0.05102539 C8.15063477 0.05553711 9.00463867 0.06004883 9.88452148 0.06469727 C12.00108749 0.07652166 14.11761771 0.0944577 16.23413086 0.11352539 C16.23413086 3.74352539 16.23413086 7.37352539 16.23413086 11.11352539 C14.58413086 11.44352539 12.93413086 11.77352539 11.23413086 12.11352539 C11.23413086 9.80352539 11.23413086 7.49352539 11.23413086 5.11352539 C10.57413086 5.11352539 9.91413086 5.11352539 9.23413086 5.11352539 C9.23413086 7.09352539 9.23413086 9.07352539 9.23413086 11.11352539 C7.58413086 11.11352539 5.93413086 11.11352539 4.23413086 11.11352539 C4.23413086 9.13352539 4.23413086 7.15352539 4.23413086 5.11352539 C3.57413086 5.11352539 2.91413086 5.11352539 2.23413086 5.11352539 C2.23413086 7.42352539 2.23413086 9.73352539 2.23413086 12.11352539 C0.58413086 12.11352539 -1.06586914 12.11352539 -2.76586914 12.11352539 C-2.79274193 10.30110487 -2.8122063 8.48857306 -2.82836914 6.67602539 C-2.8399707 5.66668945 -2.85157227 4.65735352 -2.86352539 3.61743164 C-2.72928321 0.17546201 -2.72928321 0.17546201 0 0 Z " fill="#2E368A" transform="translate(158.765869140625,82.886474609375)"/>
<path d="M0 0 C37.29 0 74.58 0 113 0 C112.67 0.66 112.34 1.32 112 2 C75.37 1.67 38.74 1.34 1 1 C1 4.63 1 8.26 1 12 C2.36125 11.938125 3.7225 11.87625 5.125 11.8125 C9.50637454 11.79876528 12.16285919 12.81980636 16 15 C18.73572585 15.69907414 18.73572585 15.69907414 21 16 C21 16.66 21 17.32 21 18 C23.64 18.33 26.28 18.66 29 19 C27.28758087 21.16305574 26.37746509 21.93046696 23.625 22.4375 C20.17775323 21.86295887 18.7000538 20.19771821 16 18 C11.12726837 15.63059561 6.37352195 14.65798228 1 14 C0.67 13.67 0.34 13.34 0 13 C0 8.71 0 4.42 0 0 Z " fill="#606DC4" transform="translate(118,19)"/>
<path d="M0 0 C3.87898501 0.68959733 7.51564667 1.74908361 11.25 3 C12.83554688 3.5259375 12.83554688 3.5259375 14.453125 4.0625 C17 5 17 5 18 6 C18.04063832 7.66617115 18.042721 9.33388095 18 11 C15.91999989 11.84161854 13.83585854 12.67300763 11.75 13.5 C10.58984375 13.9640625 9.4296875 14.428125 8.234375 14.90625 C5 16 5 16 1 16 C1.66 12.37 2.32 8.74 3 5 C2.01 5 1.02 5 0 5 C0 3.35 0 1.7 0 0 Z " fill="#1B144A" transform="translate(156,222)"/>
<path d="M0 0 C0.99 0.495 0.99 0.495 2 1 C2.144375 1.804375 2.28875 2.60875 2.4375 3.4375 C2.76502717 6.34440658 2.76502717 6.34440658 6 8 C8.58885171 8.29991069 11.09149082 8.50865225 13.6875 8.625 C14.7403418 8.68300781 14.7403418 8.68300781 15.81445312 8.7421875 C17.54254655 8.8362334 19.27123675 8.9191968 21 9 C21 9.66 21 10.32 21 11 C19.02 11 17.04 11 15 11 C15 11.99 15 12.98 15 14 C17.64 14.33 20.28 14.66 23 15 C23 18.3 23 21.6 23 25 C22.34 25 21.68 25 21 25 C21 22.03 21 19.06 21 16 C14.07 16 7.14 16 0 16 C0 10.72 0 5.44 0 0 Z " fill="#4E67E5" transform="translate(153,127)"/>
<path d="M0 0 C-5.1352343 3.42348953 -10.29475587 4.85549487 -16.375 5.5625 C-19.8036937 5.59793141 -19.8036937 5.59793141 -21 7 C-22.76130913 7.3988419 -24.53479235 7.74463174 -26.3125 8.0625 C-27.76076172 8.32740234 -27.76076172 8.32740234 -29.23828125 8.59765625 C-32 9 -32 9 -36 9 C-36 9.66 -36 10.32 -36 11 C-38.97 11 -41.94 11 -45 11 C-45 11.66 -45 12.32 -45 13 C-52.692641 13.84800767 -60.26291674 14.12152487 -68 14 C-68 13.34 -68 12.68 -68 12 C-62.80892433 10.37778885 -58.06466107 9.84758094 -52.625 9.625 C-43.47072758 9.20047277 -34.86719829 7.20520341 -26 5 C-24.50537401 4.63863696 -23.0105841 4.27795123 -21.515625 3.91796875 C-14.03997146 2.11936473 -14.03997146 2.11936473 -6.6953125 -0.140625 C-3.89360456 -1.03392318 -2.69978817 -1.03838007 0 0 Z " fill="#8B69DC" transform="translate(228,294)"/>
<path d="M0 0 C1.32 0 2.64 0 4 0 C3.67 2.64 3.34 5.28 3 8 C3.66 7.67 4.32 7.34 5 7 C5.144375 6.360625 5.28875 5.72125 5.4375 5.0625 C6 3 6 3 9 1 C11.5625 0.75 11.5625 0.75 14 1 C16 3 16 3 16.125 6.625 C16.08375 7.73875 16.0425 8.8525 16 10 C14.02 10.99 14.02 10.99 12 12 C12 9.69 12 7.38 12 5 C11.34 5 10.68 5 10 5 C9.71125 5.94875 9.4225 6.8975 9.125 7.875 C8 11 8 11 6 13 C3.5625 13.375 3.5625 13.375 1 13 C-1.54823595 10.71537467 -1.96426038 9.35024831 -2.3125 5.9375 C-2 3 -2 3 0 0 Z " fill="#1F1F5F" transform="translate(158,65)"/>
<path d="M0 0 C3 2 3 2 3.6171875 4.2421875 C3.70226562 5.11101562 3.78734375 5.97984375 3.875 6.875 C4.02582031 8.17050781 4.02582031 8.17050781 4.1796875 9.4921875 C3.96209778 12.52898317 3.00370783 13.76789024 1 16 C0.01 15.67 -0.98 15.34 -2 15 C-1.91621094 14.36191406 -1.83242187 13.72382812 -1.74609375 13.06640625 C-1.64425781 12.24011719 -1.54242188 11.41382812 -1.4375 10.5625 C-1.33308594 9.73878906 -1.22867188 8.91507813 -1.12109375 8.06640625 C-1.08113281 7.38449219 -1.04117188 6.70257813 -1 6 C-2.12534105 4.64381501 -2.12534105 4.64381501 -5.0625 4.9375 C-6.5165625 4.9684375 -6.5165625 4.9684375 -8 5 C-8 8.63 -8 12.26 -8 16 C-12 14 -12 14 -14 11 C-14.5 8.125 -14.5 8.125 -14 5 C-9.59524971 -0.06546284 -6.58567307 -0.75573298 0 0 Z " fill="#1E1C5C" transform="translate(170,100)"/>
<path d="M0 0 C0.33 0.66 0.66 1.32 1 2 C-0.1875 3.5625 -0.1875 3.5625 -2 5 C-4.6875 4.6875 -4.6875 4.6875 -7 4 C-7 3.67 -7 3.34 -7 3 C-5.5459375 2.5359375 -5.5459375 2.5359375 -4.0625 2.0625 C-1.15934208 1.30476658 -1.15934208 1.30476658 0 0 Z M-3 5 C-2.67 5.66 -2.34 6.32 -2 7 C1.3 7 4.6 7 8 7 C8 7.33 8 7.66 8 8 C-0.415 8.495 -0.415 8.495 -9 9 C-9.33 12.63 -9.66 16.26 -10 20 C-8.35 20 -6.7 20 -5 20 C-5 17.69 -5 15.38 -5 13 C-4.34 13 -3.68 13 -3 13 C-3 15.31 -3 17.62 -3 20 C-1.35 20 0.3 20 2 20 C2 20.99 2 21.98 2 23 C-2.95 23.495 -2.95 23.495 -8 24 C-8 25.32 -8 26.64 -8 28 C-9.65 28.66 -11.3 29.32 -13 30 C-13.02685412 27.68756208 -13.04632841 25.3750373 -13.0625 23.0625 C-13.07410156 21.77472656 -13.08570313 20.48695312 -13.09765625 19.16015625 C-13 16 -13 16 -12 15 C-11.63239269 12.67182036 -11.29758419 10.3381615 -11 8 C-8.36 7.01 -5.72 6.02 -3 5 Z " fill="#536FF6" transform="translate(166,75)"/>
<path d="M0 0 C1.38294718 0.01329757 2.76582404 0.03715018 4.1484375 0.0703125 C4.85484375 0.07933594 5.56125 0.08835937 6.2890625 0.09765625 C8.03399848 0.12123647 9.77876045 0.15710789 11.5234375 0.1953125 C11.5234375 1.5153125 11.5234375 2.8353125 11.5234375 4.1953125 C5.0884375 4.6903125 5.0884375 4.6903125 -1.4765625 5.1953125 C-1.4765625 6.5153125 -1.4765625 7.8353125 -1.4765625 9.1953125 C2.8134375 9.5253125 7.1034375 9.8553125 11.5234375 10.1953125 C11.5234375 11.5153125 11.5234375 12.8353125 11.5234375 14.1953125 C6.5734375 14.1953125 1.6234375 14.1953125 -3.4765625 14.1953125 C-5.85307083 9.44229583 -5.81202505 7.39498201 -5.4765625 2.1953125 C-3.4765625 0.1953125 -3.4765625 0.1953125 0 0 Z " fill="#1F1E5E" transform="translate(162.4765625,121.8046875)"/>
<path d="M0 0 C2.64 1.98 5.28 3.96 8 6 C6.68 6.33 5.36 6.66 4 7 C3.01 6.01 2.02 5.02 1 4 C1 23.8 1 43.6 1 64 C1.66 64 2.32 64 3 64 C2.505 64.99 2.505 64.99 2 66 C0 65 0 65 -1 62 C-1.0938413 60.0269873 -1.12793129 58.05092615 -1.12939453 56.07568359 C-1.13254669 54.85787201 -1.13569885 53.64006042 -1.13894653 52.38534546 C-1.1369223 51.06966583 -1.13489807 49.75398621 -1.1328125 48.3984375 C-1.13348603 47.03748558 -1.13445646 45.67653378 -1.13571167 44.31558228 C-1.13718534 41.46591037 -1.13504402 38.61626983 -1.13037109 35.76660156 C-1.12466315 32.10668643 -1.1279616 28.44684446 -1.13394356 24.78693199 C-1.13754885 21.97833703 -1.13641093 19.16975956 -1.13381577 16.36116409 C-1.13282097 14.35302941 -1.13586641 12.34489405 -1.13894653 10.33676147 C-1.13579437 9.12525421 -1.13264221 7.91374695 -1.12939453 6.66552734 C-1.12859894 5.59313812 -1.12780334 4.5207489 -1.12698364 3.41586304 C-1 1 -1 1 0 0 Z " fill="#D176C3" transform="translate(199,135)"/>
<path d="M0 0 C0.99 0.66 1.98 1.32 3 2 C2.67 3.65 2.34 5.3 2 7 C-0.43757413 7.02698422 -2.87484915 7.04683099 -5.3125 7.0625 C-6.00279297 7.07087891 -6.69308594 7.07925781 -7.40429688 7.08789062 C-10.5483025 7.10307906 -12.99420019 7.00193327 -16 6 C-20.72455401 5.75839195 -25.45737861 5.80617076 -30.1875 5.8125 C-31.20851303 5.81240936 -31.20851303 5.81240936 -32.25015259 5.81231689 C-42.32232098 5.82511489 -52.07358598 6.22785371 -62 8 C-63.12019531 8.19078125 -64.24039063 8.3815625 -65.39453125 8.578125 C-67.93595981 9.02567217 -70.46928327 9.49600133 -73 10 C-72.67 9.34 -72.34 8.68 -72 8 C-69.49030833 7.3872365 -67.04003892 6.87792877 -64.5 6.4375 C-59.87459377 5.97905241 -59.87459377 5.97905241 -56 4 C-54.28134591 3.9064081 -52.55884256 3.88255389 -50.83764648 3.88647461 C-49.73658066 3.88655014 -48.63551483 3.88662567 -47.50108337 3.88670349 C-46.3031868 3.89186478 -45.10529022 3.89702606 -43.87109375 3.90234375 C-42.65172623 3.9037587 -41.4323587 3.90517365 -40.17604065 3.90663147 C-36.2631693 3.91225033 -32.35035419 3.92480604 -28.4375 3.9375 C-25.79231853 3.94251257 -23.14713617 3.9470759 -20.50195312 3.95117188 C-14.00128274 3.96222589 -7.50064539 3.97898236 -1 4 C-0.67 2.68 -0.34 1.36 0 0 Z " fill="#866ADE" transform="translate(229,25)"/>
<path d="M0 0 C5.61 0 11.22 0 17 0 C17 3.3 17 6.6 17 10 C16.01 10 15.02 10 14 10 C14 8.02 14 6.04 14 4 C12.68 4 11.36 4 10 4 C10 5.98 10 7.96 10 10 C9.01 10 8.02 10 7 10 C7 8.02 7 6.04 7 4 C5.68 4 4.36 4 3 4 C3 6.31 3 8.62 3 11 C2.01 11 1.02 11 0 11 C0 7.37 0 3.74 0 0 Z " fill="#1B1855" transform="translate(157,206)"/>
<path d="M0 0 C5.61 0 11.22 0 17 0 C17 3.3 17 6.6 17 10 C16.01 10 15.02 10 14 10 C14 8.02 14 6.04 14 4 C12.68 4 11.36 4 10 4 C10 5.98 10 7.96 10 10 C9.01 10 8.02 10 7 10 C7 8.02 7 6.04 7 4 C5.68 4 4.36 4 3 4 C3 6.31 3 8.62 3 11 C2.01 11 1.02 11 0 11 C0 7.37 0 3.74 0 0 Z " fill="#1B1854" transform="translate(157,162)"/>
<path d="M0 0 C0.99 0.33 1.98 0.66 3 1 C-4.55951764 6.29166235 -12.52019845 11 -22 11 C-22 11.66 -22 12.32 -22 13 C-28.74153283 14.25841946 -35.13484138 15.26404456 -42 15 C-42 15.66 -42 16.32 -42 17 C-50.25 17 -58.5 17 -67 17 C-67 16.67 -67 16.34 -67 16 C-65.71222656 15.93941406 -64.42445313 15.87882812 -63.09765625 15.81640625 C-61.41925841 15.73201753 -59.74087364 15.6473687 -58.0625 15.5625 C-56.78729492 15.50352539 -56.78729492 15.50352539 -55.48632812 15.44335938 C-54.67744141 15.40146484 -53.86855469 15.35957031 -53.03515625 15.31640625 C-52.2862915 15.27974854 -51.53742676 15.24309082 -50.76586914 15.20532227 C-48.97538674 15.18228937 -48.97538674 15.18228937 -48 14 C-46.21284356 13.79043117 -44.41956231 13.63188384 -42.625 13.5 C-39.47979491 13.26763656 -37.00372093 13.00124031 -34 12 C-32.60560336 11.93334624 -31.20830125 11.91461801 -29.8125 11.9375 C-27.9253125 11.9684375 -27.9253125 11.9684375 -26 12 C-26 11.34 -26 10.68 -26 10 C-24.7934375 9.69707031 -23.586875 9.39414062 -22.34375 9.08203125 C-14.05073136 6.93067527 -7.10551544 4.93035765 0 0 Z " fill="#D16BBB" transform="translate(202,278)"/>
<path d="M0 0 C14.43804531 -0.04667978 28.87607896 -0.0818362 43.31418419 -0.10362434 C50.01774998 -0.11394563 56.72126895 -0.12802217 63.42480469 -0.15087891 C69.88922246 -0.17254588 76.35359149 -0.18455562 82.81804276 -0.18975449 C85.28930046 -0.19346132 87.76055539 -0.20069939 90.23179245 -0.21146011 C93.68241984 -0.22589332 97.13284357 -0.22798137 100.58349609 -0.22705078 C101.61423752 -0.23424133 102.64497894 -0.24143188 103.70695496 -0.24884033 C105.1120356 -0.24471634 105.1120356 -0.24471634 106.54550171 -0.24050903 C107.36221029 -0.24235262 108.17891888 -0.24419621 109.02037621 -0.24609566 C111 0 111 0 113 2 C113 3.32 113 4.64 113 6 C112.34 6 111.68 6 111 6 C110.505 3.525 110.505 3.525 110 1 C73.7 1 37.4 1 0 1 C0 0.67 0 0.34 0 0 Z " fill="#5A71EC" transform="translate(119,20)"/>
<path d="M0 0 C1.96191406 1.08520508 1.96191406 1.08520508 4 3 C4.54589844 6.00268555 4.54589844 6.00268555 4.609375 9.63671875 C4.64160156 10.93544922 4.67382812 12.23417969 4.70703125 13.57226562 C4.72177586 14.94400595 4.73609331 16.31575093 4.75 17.6875 C4.77815875 19.07100111 4.80808608 20.45446744 4.83984375 21.83789062 C4.91066109 25.22532021 4.96330176 28.61205667 5 32 C5.598125 31.34 6.19625 30.68 6.8125 30 C9 28 9 28 12 28 C12.33 26.68 12.66 25.36 13 24 C13.66 24 14.32 24 15 24 C15 23.34 15 22.68 15 22 C16.8125 20.3125 16.8125 20.3125 19 19 C19.99 19.33 20.98 19.66 22 20 C18.88307091 23.17469938 15.75516454 26.33835392 12.625 29.5 C11.73554688 30.40621094 10.84609375 31.31242187 9.9296875 32.24609375 C9.07890625 33.10332031 8.228125 33.96054688 7.3515625 34.84375 C6.17327881 36.03774414 6.17327881 36.03774414 4.97119141 37.25585938 C3 39 3 39 1 39 C1.0721875 38.42636719 1.144375 37.85273437 1.21875 37.26171875 C1.90662795 30.96572476 2.13797097 24.70295237 2.1875 18.375 C2.20039063 17.58826904 2.21328125 16.80153809 2.2265625 15.9909668 C2.23584113 10.42668713 1.41354498 5.37707707 0 0 Z " fill="#E77AA6" transform="translate(231,64)"/>
<path d="M0 0 C0.66 0.33 1.32 0.66 2 1 C1.01 1.66 0.02 2.32 -1 3 C-1.31585421 6.04748367 -1.43734376 8.89578817 -1.43237305 11.94775391 C-1.4425647 12.87463516 -1.45275635 13.80151642 -1.46325684 14.75648499 C-1.493528 17.82990451 -1.5026743 20.90301312 -1.51171875 23.9765625 C-1.52855497 26.10363818 -1.54670376 28.23070384 -1.56611633 30.35775757 C-1.61373723 35.96371329 -1.64346831 41.56962843 -1.66955566 47.17572021 C-1.69930032 52.89327005 -1.74585147 58.61067985 -1.79101562 64.328125 C-1.87718623 75.55201027 -1.94447019 86.77592426 -2 98 C-2.33 98 -2.66 98 -3 98 C-3.0154612 96.85487442 -3.0154612 96.85487442 -3.03123474 95.68661499 C-3.12938154 88.47749994 -3.23191968 81.26846684 -3.33933926 74.05948448 C-3.3944056 70.35365008 -3.44779861 66.64780758 -3.49731445 62.94189453 C-3.54519946 59.36271274 -3.59754923 55.78362109 -3.65294075 52.20454788 C-3.67325548 50.8418974 -3.69198575 49.47922232 -3.70907402 48.11652756 C-3.73336053 46.20181264 -3.76390201 44.2871802 -3.79467773 42.37255859 C-3.81022202 41.28445892 -3.8257663 40.19635925 -3.84178162 39.07528687 C-4.0008568 35.98334643 -4.43060063 33.04087478 -5 30 C-4.34 30 -3.68 30 -3 30 C-3.01571045 29.16227051 -3.0314209 28.32454102 -3.04760742 27.46142578 C-3.09870007 24.35663123 -3.13633234 21.25205069 -3.16479492 18.14697266 C-3.18732251 16.14080626 -3.2254357 14.13483474 -3.26367188 12.12890625 C-3.27333984 10.87207031 -3.28300781 9.61523438 -3.29296875 8.3203125 C-3.3086792 7.15773926 -3.32438965 5.99516602 -3.34057617 4.79736328 C-3.22818604 3.8742334 -3.1157959 2.95110352 -3 2 C-2.01 1.34 -1.02 0.68 0 0 Z " fill="#A57DD9" transform="translate(153,54)"/>
<path d="M0 0 C0 4.05345102 -1.58160112 5.8215329 -4 9 C-4.99 9.33 -5.98 9.66 -7 10 C-7.33 10.99 -7.66 11.98 -8 13 C-15.45236157 18.6813857 -23.45158526 22.21609874 -32.296875 25.08984375 C-34.88724018 25.73907352 -34.88724018 25.73907352 -36 27 C-38.35313555 27.07271741 -40.70833668 27.08370868 -43.0625 27.0625 C-44.35285156 27.05347656 -45.64320313 27.04445313 -46.97265625 27.03515625 C-47.97167969 27.02355469 -48.97070312 27.01195312 -50 27 C-50 26.67 -50 26.34 -50 26 C-49.030625 25.86464844 -48.06125 25.72929687 -47.0625 25.58984375 C-29.96406057 22.94639875 -16.01873777 16.70552279 -4 4 C-2.66666667 2.66666667 -1.33333333 1.33333333 0 0 Z " fill="#6072DD" transform="translate(301,265)"/>
<path d="M0 0 C-0.53367187 0.64324219 -1.06734375 1.28648437 -1.6171875 1.94921875 C-6.41504386 7.76807222 -11.09240531 13.6518011 -15.63623047 19.6706543 C-17.62009234 22.28229501 -19.59386657 24.76462443 -22 27 C-21.4799859 22.46019434 -19.72228808 19.94070748 -16.9375 16.375 C-13.753316 12.6235632 -13.753316 12.6235632 -13 8 C-14.32 8.33 -15.64 8.66 -17 9 C-14.21022965 6.02899167 -11.41851087 3.80340857 -7.9375 1.6875 C-7.08027344 1.15511719 -6.22304687 0.62273437 -5.33984375 0.07421875 C-3 -1 -3 -1 0 0 Z " fill="#E476A4" transform="translate(93,182)"/>
<path d="M0 0 C1.35610486 0.01508044 2.71222602 0.02876288 4.06835938 0.04101562 C7.35849602 0.07614164 10.64778183 0.1253336 13.9375 0.1875 C14.4325 1.1775 14.4325 1.1775 14.9375 2.1875 C14.00303465 4.21894641 13.00525224 6.22283587 11.9375 8.1875 C10.9375 5.1875 10.9375 5.1875 10.9375 2.1875 C-9.19389446 1.51394355 -9.19389446 1.51394355 -27.87890625 8.06640625 C-30.26918598 9.29361606 -32.41877836 9.77398291 -35.0625 10.1875 C-34.10644543 7.74981113 -33.59364162 6.45812395 -31.21484375 5.24609375 C-30.48394531 5.04113281 -29.75304687 4.83617187 -29 4.625 C-28.28714844 4.41746094 -27.57429687 4.20992187 -26.83984375 3.99609375 C-25.92332031 3.72925781 -25.00679687 3.46242187 -24.0625 3.1875 C-23.47299561 2.9397583 -22.88349121 2.6920166 -22.27612305 2.43676758 C-14.95546034 -0.47414711 -7.78021351 -0.14954575 0 0 Z " fill="#736AE6" transform="translate(190.0625,43.8125)"/>
<path d="M0 0 C1.67542976 0.28604898 3.34385343 0.61781233 5 1 C5.144375 1.763125 5.28875 2.52625 5.4375 3.3125 C5.9632594 6.08172908 5.9632594 6.08172908 7 9 C6 10 6 10 2.75 10.125 C-1 10 -1 10 -3.6875 9.4375 C-6.16393458 8.96898535 -7.63315731 9.21105244 -10 10 C-10 8.35 -10 6.7 -10 5 C-8.02 4.34 -6.04 3.68 -4 3 C-4 4 -4 5 -4 6 C-3.01 6 -2.02 6 -1 6 C-1.020625 5.195625 -1.04125 4.39125 -1.0625 3.5625 C-1 1 -1 1 0 0 Z " fill="#24256C" transform="translate(166,248)"/>
<path d="M0 0 C0.66 0.33 1.32 0.66 2 1 C0.41768229 3.99807566 -0.86638769 5.89571722 -3.5625 8 C-6.26954636 10.22116624 -6.78949183 11.80079984 -8 15 C-8.99 15.33 -9.98 15.66 -11 16 C-11.66 16.66 -12.32 17.32 -13 18 C-15.625 18.625 -15.625 18.625 -18 19 C-14.21221541 10.7473872 -7.19881827 5.22363231 0 0 Z " fill="#F16EA0" transform="translate(134,45)"/>
<path d="M0 0 C5.61 0 11.22 0 17 0 C17 1.32 17 2.64 17 4 C12.71 4 8.42 4 4 4 C4 5.98 4 7.96 4 10 C2.68 10 1.36 10 0 10 C0 6.7 0 3.4 0 0 Z " fill="#1E1F5F" transform="translate(157,190)"/>
<path d="M0 0 C0.33 0 0.66 0 1 0 C1.02687279 1.81242052 1.04633715 3.62495233 1.0625 5.4375 C1.07410156 6.44683594 1.08570313 7.45617187 1.09765625 8.49609375 C1 11 1 11 0 12 C-2.86267567 12.07325168 -5.700719 12.09238205 -8.5625 12.0625 C-9.36880859 12.05798828 -10.17511719 12.05347656 -11.00585938 12.04882812 C-13.00393756 12.03700518 -15.00197783 12.01906914 -17 12 C-16.01 11.67 -15.02 11.34 -14 11 C-14 8.69 -14 6.38 -14 4 C-12.68 4 -11.36 4 -10 4 C-10 5.98 -10 7.96 -10 10 C-9.01 10 -8.02 10 -7 10 C-7 8.02 -7 6.04 -7 4 C-5.68 4 -4.36 4 -3 4 C-3 5.98 -3 7.96 -3 10 C-2.01 10 -1.02 10 0 10 C0 6.7 0 3.4 0 0 Z " fill="#4454C0" transform="translate(174,206)"/>
<path d="M0 0 C3.33193619 2.69728168 4.60371996 6.02060187 6 10 C5.71018237 14.08228827 3.29057766 16.01747491 0.4375 18.75 C-0.38878906 19.54921875 -1.21507812 20.3484375 -2.06640625 21.171875 C-2.70449219 21.77515625 -3.34257812 22.3784375 -4 23 C-5.10392951 19.21624161 -4.89992886 17.54077652 -3 14 C-0.375 11.1875 -0.375 11.1875 2 9 C1.67 8.2575 1.34 7.515 1 6.75 C0 4 0 4 0 0 Z " fill="#EE71A2" transform="translate(262,56)"/>
<path d="M0 0 C5.28 0 10.56 0 16 0 C16 2.64 16 5.28 16 8 C15.34 8 14.68 8 14 8 C14 6.35 14 4.7 14 3 C13.01 3 12.02 3 11 3 C10.67 4.65 10.34 6.3 10 8 C9.01 8 8.02 8 7 8 C7 6.02 7 4.04 7 2 C5.68 2 4.36 2 3 2 C3 4.31 3 6.62 3 9 C2.01 9 1.02 9 0 9 C0 6.03 0 3.06 0 0 Z " fill="#19134A" transform="translate(157,85)"/>
<path d="M0 0 C0.66 0 1.32 0 2 0 C2.33 0.66 2.66 1.32 3 2 C3.66 2 4.32 2 5 2 C4.34 4.97 3.68 7.94 3 11 C2.278125 11.061875 1.55625 11.12375 0.8125 11.1875 C-2.2325013 11.81635561 -2.2325013 11.81635561 -4.5 14.5625 C-7 17 -7 17 -9.8125 17.3125 C-10.534375 17.209375 -11.25625 17.10625 -12 17 C-11.29875 16.360625 -10.5975 15.72125 -9.875 15.0625 C-5.64856774 10.84814326 -1.89116496 5.67349488 0 0 Z " fill="#5372FA" transform="translate(148,273)"/>
<path d="M0 0 C0.66 0 1.32 0 2 0 C2 2.31 2 4.62 2 7 C3.32 7.33 4.64 7.66 6 8 C5.34 8 4.68 8 4 8 C4 9.65 4 11.3 4 13 C4.66 13 5.32 13 6 13 C6.33 16.3 6.66 19.6 7 23 C6.67 23 6.34 23 6 23 C5.67 20.03 5.34 17.06 5 14 C1.98509443 12.99503148 -0.04181692 12.89664697 -3.1875 12.9375 C-4.08855469 12.94652344 -4.98960937 12.95554687 -5.91796875 12.96484375 C-6.94857422 12.98224609 -6.94857422 12.98224609 -8 13 C-8.66 14.32 -9.32 15.64 -10 17 C-11 15 -11 15 -10 11 C-6.7 10.67 -3.4 10.34 0 10 C0 9.01 0 8.02 0 7 C-1.65 7 -3.3 7 -5 7 C-5 6.67 -5 6.34 -5 6 C-3.35 6 -1.7 6 0 6 C0 4.02 0 2.04 0 0 Z " fill="#5165DF" transform="translate(168,88)"/>
<path d="M0 0 C27.39305452 -0.18895771 27.39305452 -0.18895771 37.8125 0.3125 C39.67841797 0.39951172 39.67841797 0.39951172 41.58203125 0.48828125 C45.53700448 1.08039724 48.40457562 2.28285109 52 4 C48.73302745 5.08899085 46.83277746 4.95955464 43.4375 4.625 C42.46683594 4.53476562 41.49617188 4.44453125 40.49609375 4.3515625 C38 4 38 4 36 3 C33.30561263 2.77332577 30.62896602 2.59886847 27.9296875 2.46484375 C27.13345978 2.42186661 26.33723206 2.37888947 25.51687622 2.33460999 C22.96978498 2.19808674 20.42242028 2.06772493 17.875 1.9375 C16.14971807 1.84610826 14.42445729 1.75431645 12.69921875 1.66210938 C8.46637734 1.43676046 4.2332805 1.21693747 0 1 C0 0.67 0 0.34 0 0 Z " fill="#F169AE" transform="translate(184,31)"/>
<path d="M0 0 C1.10859375 0.00902344 2.2171875 0.01804687 3.359375 0.02734375 C6.07314592 0.05073833 8.78645545 0.08351825 11.5 0.125 C11.5 0.455 11.5 0.785 11.5 1.125 C8.53 1.125 5.56 1.125 2.5 1.125 C2.5 1.785 2.5 2.445 2.5 3.125 C-5.192641 3.97300767 -12.76291674 4.24652487 -20.5 4.125 C-20.5 3.465 -20.5 2.805 -20.5 2.125 C-13.58616486 -0.00620646 -7.20118424 -0.11198014 0 0 Z " fill="#706CE8" transform="translate(180.5,303.875)"/>
<path d="M0 0 C0.33 0 0.66 0 1 0 C1 1.98 1 3.96 1 6 C-0.98 6 -2.96 6 -5 6 C-5 6.66 -5 7.32 -5 8 C-3.35 8.33 -1.7 8.66 0 9 C0 9.33 0 9.66 0 10 C-4.29 10 -8.58 10 -13 10 C-13.33 8.35 -13.66 6.7 -14 5 C-13 4 -13 4 -10.05859375 3.90234375 C-8.26615234 3.91974609 -8.26615234 3.91974609 -6.4375 3.9375 C-4.64119141 3.95103516 -4.64119141 3.95103516 -2.80859375 3.96484375 C-1.88175781 3.97644531 -0.95492187 3.98804687 0 4 C0 2.68 0 1.36 0 0 Z " fill="#485BCD" transform="translate(174,122)"/>
<path d="M0 0 C0.33 0 0.66 0 1 0 C1 3.63 1 7.26 1 11 C-3.41225737 12.47075246 -6.48281619 13.36884358 -11 12 C-11 9.69 -11 7.38 -11 5 C-11.66 5 -12.32 5 -13 5 C-13 6.98 -13 8.96 -13 11 C-13.33 11 -13.66 11 -14 11 C-14 8.69 -14 6.38 -14 4 C-12.68 4 -11.36 4 -10 4 C-10 5.98 -10 7.96 -10 10 C-9.01 10 -8.02 10 -7 10 C-7 8.02 -7 6.04 -7 4 C-5.68 4 -4.36 4 -3 4 C-3 5.98 -3 7.96 -3 10 C-2.01 10 -1.02 10 0 10 C0 6.7 0 3.4 0 0 Z " fill="#414FB8" transform="translate(174,162)"/>
<path d="M0 0 C2 2 2 2 2.125 5.625 C2.08375 6.73875 2.0425 7.8525 2 9 C0.02 9.99 0.02 9.99 -2 11 C-2 8.69 -2 6.38 -2 4 C-2.66 4 -3.32 4 -4 4 C-4 4.66 -4 5.32 -4 6 C-4.66 6 -5.32 6 -6 6 C-6 6.66 -6 7.32 -6 8 C-6.66 8 -7.32 8 -8 8 C-8.1875 5.125 -8.1875 5.125 -8 2 C-4.77626323 -0.14915785 -3.73296326 -0.38286803 0 0 Z " fill="#1E1D58" transform="translate(172,66)"/>
<path d="M0 0 C0.625 1.8125 0.625 1.8125 1 4 C0.01 5.485 0.01 5.485 -1 7 C-1.2757294 9.51823901 -1.2757294 9.51823901 -1.1953125 12.32421875 C-1.18886719 13.35224609 -1.18242187 14.38027344 -1.17578125 15.43945312 C-1.15064453 17.04723633 -1.15064453 17.04723633 -1.125 18.6875 C-1.11146484 20.31268555 -1.11146484 20.31268555 -1.09765625 21.97070312 C-1.0740734 24.6473571 -1.04116126 27.32356797 -1 30 C-4.65887765 24.51168352 -5.26414335 20.4599465 -4.75 13.9375 C-4.71003906 13.23044922 -4.67007813 12.52339844 -4.62890625 11.79492188 C-4.3730414 8.11254257 -3.9956473 5.14886971 -2 2 C-1.34 2 -0.68 2 0 2 C0 1.34 0 0.68 0 0 Z " fill="#E476AD" transform="translate(149,58)"/>
<path d="M0 0 C-3.56315093 2.37543395 -7.01236966 3.04880789 -11.125 3.9375 C-15.86908134 4.9951707 -20.49623329 6.05670953 -25.0625 7.75 C-29.15820497 9.2298934 -32.6669851 9.23634627 -37 9 C-36.67 8.34 -36.34 7.68 -36 7 C-33.3125 6.40234375 -33.3125 6.40234375 -30 5.9375 C-26.18188068 5.69235896 -26.18188068 5.69235896 -23 4 C-20.35629499 3.46130485 -17.71938641 2.96386435 -15.0625 2.5 C-0.71085873 -0.01870681 -0.71085873 -0.01870681 0 0 Z " fill="#D86BB8" transform="translate(224,293)"/>
<path d="M0 0 C1.65 0.33 3.3 0.66 5 1 C5 2.98 5 4.96 5 7 C5.99 6.67 6.98 6.34 8 6 C7 9 7 9 5 10 C2.95944995 10.07065617 0.91665743 10.08421976 -1.125 10.0625 C-2.22070312 10.05347656 -3.31640625 10.04445312 -4.4453125 10.03515625 C-5.70988281 10.01775391 -5.70988281 10.01775391 -7 10 C-6.67 9.34 -6.34 8.68 -6 8 C-0.25 7.875 -0.25 7.875 2 9 C2 8.34 2 7.68 2 7 C1.34 7 0.68 7 0 7 C0 4.69 0 2.38 0 0 Z " fill="#2A307C" transform="translate(166,146)"/>
<path d="M0 0 C0.99 0 1.98 0 3 0 C4.36363208 1.97946592 5.69418644 3.9819245 7 6 C8.31558703 7.02323436 9.64377755 8.03126968 11 9 C11 9.66 11 10.32 11 11 C11.598125 11.020625 12.19625 11.04125 12.8125 11.0625 C15 12 15 12 16.75 15.5625 C17.1625 16.696875 17.575 17.83125 18 19 C10.22532275 15.49377301 4.80862421 7.81099965 0 1 C0 0.67 0 0.34 0 0 Z " fill="#EA75A1" transform="translate(121,125)"/>
<path d="M0 0 C0.99 0.33 1.98 0.66 3 1 C-5.66697958 7.06688571 -15.17807005 12 -26 12 C-26 11.34 -26 10.68 -26 10 C-24.7934375 9.69707031 -23.586875 9.39414062 -22.34375 9.08203125 C-14.05073136 6.93067527 -7.10551544 4.93035765 0 0 Z " fill="#BD6BC3" transform="translate(202,278)"/>
<path d="M0 0 C0.99 0.66 1.98 1.32 3 2 C2.67 3.65 2.34 5.3 2 7 C-13.74487472 7.3690205 -13.74487472 7.3690205 -21 5 C-21 4.67 -21 4.34 -21 4 C-14.4 4 -7.8 4 -1 4 C-0.67 2.68 -0.34 1.36 0 0 Z " fill="#7A6DE6" transform="translate(229,25)"/>
<path d="M0 0 C0.66 0.33 1.32 0.66 2 1 C-0.38845138 6.05789704 -3.24665336 7.44727681 -8 10 C-8.33 10.66 -8.66 11.32 -9 12 C-12.17045938 13.24061454 -14.58238295 14 -18 14 C-12.13142165 9.12897384 -6.28303486 4.32831291 0 0 Z " fill="#EB729E" transform="translate(74,191)"/>
<path d="M0 0 C0.33 0.99 0.66 1.98 1 3 C5.62 3 10.24 3 15 3 C15 2.34 15 1.68 15 1 C20.94 0.67 26.88 0.34 33 0 C29.71010944 2.19326037 28.23291605 2.32328885 24.375 2.5625 C20.8749469 2.50275129 20.8749469 2.50275129 18 4 C16.36527118 4.08700342 14.72685945 4.10701063 13.08984375 4.09765625 C12.10048828 4.09443359 11.11113281 4.09121094 10.09179688 4.08789062 C9.05087891 4.07951172 8.00996094 4.07113281 6.9375 4.0625 C5.89271484 4.05798828 4.84792969 4.05347656 3.77148438 4.04882812 C1.1809334 4.03699913 -1.40950559 4.02051689 -4 4 C-4 3.34 -4 2.68 -4 2 C-2.68 1.34 -1.36 0.68 0 0 Z " fill="#886CD9" transform="translate(135,290)"/>
<path d="M0 0 C3.0625 0.1875 3.0625 0.1875 5.0625 2.1875 C4.6875 5.3125 4.6875 5.3125 4.0625 8.1875 C3.7325 8.1875 3.4025 8.1875 3.0625 8.1875 C3.0625 6.5375 3.0625 4.8875 3.0625 3.1875 C1.4125 3.1875 -0.2375 3.1875 -1.9375 3.1875 C-1.6075 3.765 -1.2775 4.3425 -0.9375 4.9375 C0.0625 7.1875 0.0625 7.1875 0.0625 11.1875 C-0.5975 11.1875 -1.2575 11.1875 -1.9375 11.1875 C-1.9375 11.8475 -1.9375 12.5075 -1.9375 13.1875 C-2.9275 12.8575 -3.9175 12.5275 -4.9375 12.1875 C-4.2775 12.1875 -3.6175 12.1875 -2.9375 12.1875 C-3.02128906 11.40503906 -3.10507813 10.62257813 -3.19140625 9.81640625 C-3.29324219 8.80449219 -3.39507812 7.79257813 -3.5 6.75 C-3.60441406 5.74066406 -3.70882812 4.73132813 -3.81640625 3.69140625 C-3.85636719 2.86511719 -3.89632812 2.03882812 -3.9375 1.1875 C-2.9375 0.1875 -2.9375 0.1875 0 0 Z " fill="#4C60D1" transform="translate(164.9375,103.8125)"/>
<path d="M0 0 C5.77482729 -0.29869796 8.85420308 0.14122394 14 3 C16.73572585 3.69907414 16.73572585 3.69907414 19 4 C19 4.66 19 5.32 19 6 C21.64 6.33 24.28 6.66 27 7 C25.28758087 9.16305574 24.37746509 9.93046696 21.625 10.4375 C18.17775323 9.86295887 16.7000538 8.19771821 14 6 C11.3710383 4.82775775 8.7313266 3.92587342 6 3 C6 2.34 6 1.68 6 1 C4.02 1 2.04 1 0 1 C0 0.67 0 0.34 0 0 Z " fill="#6878E8" transform="translate(120,31)"/>
<path d="M0 0 C0.99 0 1.98 0 3 0 C3.17700355 4.60209225 3.10814567 6.78370866 1 11 C5.455 10.01 5.455 10.01 10 9 C6.48283697 12.51716303 4.80432667 12.54676163 0 13 C-0.19397476 11.02145742 -0.38001321 9.0421352 -0.5625 7.0625 C-0.66691406 5.96035156 -0.77132812 4.85820312 -0.87890625 3.72265625 C-0.91886719 2.82417969 -0.95882812 1.92570313 -1 1 C-0.67 0.67 -0.34 0.34 0 0 Z M-4 2 C-3.34 2.66 -2.68 3.32 -2 4 C-2.66 4.66 -3.32 5.32 -4 6 C-4 4.68 -4 3.36 -4 2 Z " fill="#4D5FD5" transform="translate(156,227)"/>
<path d="M0 0 C0.33 0 0.66 0 1 0 C0.4181676 7.14711654 -0.66534594 14.09479725 -2.0625 21.125 C-2.3419043 22.55972656 -2.3419043 22.55972656 -2.62695312 24.0234375 C-3.08059056 26.34978331 -3.53832038 28.67523936 -4 31 C-4.33 31 -4.66 31 -5 31 C-5 27.7 -5 24.4 -5 21 C-4.34 21 -3.68 21 -3 21 C-3.03480469 20.23816406 -3.06960938 19.47632813 -3.10546875 18.69140625 C-3.28540828 11.82799861 -2.68742704 6.33464945 0 0 Z " fill="#6171D5" transform="translate(324,257)"/>
<path d="M0 0 C3.37462715 0.54723683 5.08235 1.0549 8 3 C7.01 3.33 6.02 3.66 5 4 C5 7.3 5 10.6 5 14 C4.01 14.33 3.02 14.66 2 15 C2.33 11.7 2.66 8.4 3 5 C2.01 5 1.02 5 0 5 C0 3.35 0 1.7 0 0 Z " fill="#21236A" transform="translate(156,222)"/>
<path d="M0 0 C0.33 0.66 0.66 1.32 1 2 C-0.1875 3.5625 -0.1875 3.5625 -2 5 C-4.6875 4.6875 -4.6875 4.6875 -7 4 C-7 3.67 -7 3.34 -7 3 C-5.5459375 2.5359375 -5.5459375 2.5359375 -4.0625 2.0625 C-1.15934208 1.30476658 -1.15934208 1.30476658 0 0 Z M-3 5 C-2.67 5.66 -2.34 6.32 -2 7 C1.3 7 4.6 7 8 7 C8 7.33 8 7.66 8 8 C-0.415 8.495 -0.415 8.495 -9 9 C-9.33 12.3 -9.66 15.6 -10 19 C-10.33 19 -10.66 19 -11 19 C-11 15.37 -11 11.74 -11 8 C-8.36 7.01 -5.72 6.02 -3 5 Z " fill="#4F62D5" transform="translate(166,75)"/>
<path d="M0 0 C1.29873047 0.00644531 2.59746094 0.01289062 3.93554688 0.01953125 C5.30729432 0.0362419 6.67903911 0.05317179 8.05078125 0.0703125 C9.43423843 0.08034576 10.81770252 0.08947101 12.20117188 0.09765625 C15.58871577 0.12126283 18.97591197 0.15419213 22.36328125 0.1953125 C22.85828125 1.1853125 22.85828125 1.1853125 23.36328125 2.1953125 C22.4288159 4.22675891 21.43103349 6.23064837 20.36328125 8.1953125 C19.36328125 5.1953125 19.36328125 5.1953125 19.36328125 2.1953125 C9.79328125 2.1953125 0.22328125 2.1953125 -9.63671875 2.1953125 C-6.00365817 -0.22672788 -4.31852852 -0.03771641 0 0 Z " fill="#7A6CDB" transform="translate(181.63671875,43.8046875)"/>
<path d="M0 0 C-0.78246094 0.26554687 -1.56492188 0.53109375 -2.37109375 0.8046875 C-3.38300781 1.15789063 -4.39492187 1.51109375 -5.4375 1.875 C-6.95150391 2.39707031 -6.95150391 2.39707031 -8.49609375 2.9296875 C-11.13971751 3.74055093 -11.13971751 3.74055093 -12 6 C-13.7421875 6.8515625 -13.7421875 6.8515625 -15.875 7.625 C-16.57367188 7.88539062 -17.27234375 8.14578125 -17.9921875 8.4140625 C-20 9 -20 9 -23 9 C-22.67 8.01 -22.34 7.02 -22 6 C-19.35142564 4.82090045 -16.79401465 3.81462215 -14.0625 2.875 C-12.59482595 2.35219691 -11.12736797 1.8287867 -9.66015625 1.3046875 C-8.45230469 0.87414063 -7.24445313 0.44359375 -6 0 C-3.50907189 -1.24546405 -2.58919267 -0.7767578 0 0 Z " fill="#C568C1" transform="translate(162,35)"/>
<path d="M0 0 C2.93868029 2.93868029 3.2117075 5.68683385 3.375 9.6875 C3.35864132 15.2576298 1.36936623 18.69202461 -2 23 C-2 20 -2 20 -1.0078125 17.2734375 C0.13628589 13.55733497 0.19817827 10.5034485 0.125 6.625 C0.10695312 5.37976563 0.08890625 4.13453125 0.0703125 2.8515625 C0.04710937 1.91054687 0.02390625 0.96953125 0 0 Z " fill="#EA76A4" transform="translate(230,240)"/>
<path d="M0 0 C0 1.32 0 2.64 0 4 C-2.31 4.33 -4.62 4.66 -7 5 C-7.33 4.34 -7.66 3.68 -8 3 C-10.32156597 2.59270772 -12.6568787 2.25561323 -15 2 C-15 1.67 -15 1.34 -15 1 C-9.9752761 0.37470103 -5.07471573 -0.13012092 0 0 Z " fill="#1C1549" transform="translate(174,265)"/>
<path d="M0 0 C1.65 0 3.3 0 5 0 C-1.39150035 5.55782639 -8.73965772 7.47553382 -17 8 C-11.38815428 4.25876952 -6.93486832 1.59206657 0 2 C0 1.34 0 0.68 0 0 Z " fill="#DA6CAB" transform="translate(241,285)"/>
<path d="M0 0 C0.66 0.33 1.32 0.66 2 1 C-1.11336814 5.00290189 -3.54981895 7.48964146 -8 10 C-10.68020392 12.38240349 -11.85537608 13.56612823 -13 17 C-14.32 16.67 -15.64 16.34 -17 16 C-11.5184171 10.41915303 -6.03331362 4.98404168 0 0 Z " fill="#E2729D" transform="translate(54,206)"/>
<path d="M0 0 C1.47906892 -0.02689216 2.95827483 -0.04634621 4.4375 -0.0625 C5.26121094 -0.07410156 6.08492187 -0.08570313 6.93359375 -0.09765625 C9 0 9 0 10 1 C10.14115161 3.67058851 10.04247107 6.32432238 10 9 C9.01 9 8.02 9 7 9 C6.67 7.02 6.34 5.04 6 3 C4.02 2.34 2.04 1.68 0 1 C0 0.67 0 0.34 0 0 Z " fill="#1B1349" transform="translate(164,207)"/>
<path d="M0 0 C1.32 0 2.64 0 4 0 C4.144375 0.763125 4.28875 1.52625 4.4375 2.3125 C4.9632594 5.08172908 4.9632594 5.08172908 6 8 C5 9 5 9 1.4375 9.0625 C0.303125 9.041875 -0.83125 9.02125 -2 9 C-2.33 8.34 -2.66 7.68 -3 7 C-0.03 7.495 -0.03 7.495 3 8 C3 7.01 3 6.02 3 5 C2.01 5 1.02 5 0 5 C0 3.35 0 1.7 0 0 Z " fill="#3B46A3" transform="translate(167,249)"/>
<path d="M0 0 C1.98 0 3.96 0 6 0 C6 0.99 6 1.98 6 3 C4.68 3.33 3.36 3.66 2 4 C1.67 5.65 1.34 7.3 1 9 C1.66 9.33 2.32 9.66 3 10 C1.68 10.33 0.36 10.66 -1 11 C-0.67 7.37 -0.34 3.74 0 0 Z " fill="#4B5FD1" transform="translate(156,147)"/>
<path d="M0 0 C6.81598387 -0.33278764 11.92122066 -0.24201565 18 3 C14.79800232 4.06733256 12.89569246 4.02135895 9.5625 3.75 C8.61503906 3.68296875 7.66757813 3.6159375 6.69140625 3.546875 C3.73382191 2.94591447 2.24394424 1.97339777 0 0 Z " fill="#D36AAC" transform="translate(218,32)"/>
<path d="M0 0 C0.66 0.33 1.32 0.66 2 1 C-1.21377715 4.21377715 -4.03362712 4.94684418 -8.55078125 5.1953125 C-9.79214844 5.17210937 -11.03351563 5.14890625 -12.3125 5.125 C-13.56675781 5.10695313 -14.82101563 5.08890625 -16.11328125 5.0703125 C-17.06589844 5.04710937 -18.01851562 5.02390625 -19 5 C-19 4.67 -19 4.34 -19 4 C-17.87980469 3.79503906 -16.75960937 3.59007812 -15.60546875 3.37890625 C-14.13279176 3.10688311 -12.66013664 2.83474151 -11.1875 2.5625 C-10.44951172 2.42779297 -9.71152344 2.29308594 -8.95117188 2.15429688 C-5.88684924 1.58580263 -2.96071047 0.98690349 0 0 Z " fill="#636DD1" transform="translate(270,287)"/>
<path d="M0 0 C1.08784335 3.31395986 1.07262544 3.83580335 -0.4375 7.25 C-0.953125 8.1575 -1.46875 9.065 -2 10 C-2.66 10 -3.32 10 -4 10 C-4.061875 10.763125 -4.12375 11.52625 -4.1875 12.3125 C-5 15 -5 15 -7.5625 16.8125 C-8.366875 17.204375 -9.17125 17.59625 -10 18 C-8.14945936 14.14308372 -6.00656926 10.45576705 -3.875 6.75 C-3.50246094 6.1003125 -3.12992187 5.450625 -2.74609375 4.78125 C-1.83170879 3.18693776 -0.91598744 1.5933921 0 0 Z " fill="#6371D9" transform="translate(312,247)"/>
<path d="M0 0 C6.00073223 4.31660302 11.54006063 9.02033308 17 14 C16.01 14.33 15.02 14.66 14 15 C13.34 14.319375 12.68 13.63875 12 12.9375 C9.05984285 9.97199667 5.88209323 7.3155737 2.671875 4.6484375 C1 3 1 3 0 0 Z " fill="#E478A2" transform="translate(207,142)"/>
<path d="M0 0 C0 0.66 0 1.32 0 2 C-2.64 2 -5.28 2 -8 2 C-8 2.66 -8 3.32 -8 4 C-10.64 4 -13.28 4 -16 4 C-16 3.34 -16 2.68 -16 2 C-10.42932723 0.40837921 -5.78898419 -0.20674944 0 0 Z " fill="#B56BC7" transform="translate(176,304)"/>
<path d="M0 0 C1.64630328 0.14042877 3.29204179 0.28749329 4.9375 0.4375 C6.31228516 0.55931641 6.31228516 0.55931641 7.71484375 0.68359375 C10 1 10 1 11 2 C12.84891946 2.23363881 14.70488031 2.41303635 16.5625 2.5625 C17.57441406 2.64628906 18.58632812 2.73007812 19.62890625 2.81640625 C20.80259766 2.90728516 20.80259766 2.90728516 22 3 C22 3.33 22 3.66 22 4 C8.3667426 4.18451025 8.3667426 4.18451025 2 3 C2 2.34 2 1.68 2 1 C1.34 0.67 0.68 0.34 0 0 Z " fill="#E974A1" transform="translate(63,308)"/>
<path d="M0 0 C1.46067199 0.45082469 2.91848032 0.91093537 4.375 1.375 C5.18710938 1.63023437 5.99921875 1.88546875 6.8359375 2.1484375 C9 3 9 3 11 5 C6.71 5 2.42 5 -2 5 C-1.34 3.35 -0.68 1.7 0 0 Z " fill="#EE6EA0" transform="translate(85,281)"/>
<path d="M0 0 C0.9867097 3.11074833 0.96838493 5.16442757 0.22265625 8.328125 C0.03896484 9.12734375 -0.14472656 9.9265625 -0.33398438 10.75 C-0.63272461 11.9875 -0.63272461 11.9875 -0.9375 13.25 C-1.23043945 14.51070313 -1.23043945 14.51070313 -1.52929688 15.796875 C-2.01142286 17.86648898 -2.50463863 19.93351395 -3 22 C-3.33 22 -3.66 22 -4 22 C-4.54249536 13.99819339 -2.60838688 7.53404602 0 0 Z " fill="#DF6C99" transform="translate(16,251)"/>
<path d="M0 0 C2.64 0 5.28 0 8 0 C7.67 2.64 7.34 5.28 7 8 C5.35 8.33 3.7 8.66 2 9 C1.67 8.34 1.34 7.68 1 7 C1.99 7 2.98 7 4 7 C4 5.35 4 3.7 4 2 C2.68 1.34 1.36 0.68 0 0 Z " fill="#1B1241" transform="translate(158,246)"/>
<path d="M0 0 C1.32 0 2.64 0 4 0 C4 0.66 4 1.32 4 2 C4.99 2.33 5.98 2.66 7 3 C5.68 3.33 4.36 3.66 3 4 C3.33 5.98 3.66 7.96 4 10 C3.01 10 2.02 10 1 10 C0.67 6.7 0.34 3.4 0 0 Z " fill="#1B1442" transform="translate(160,225)"/>
<path d="M0 0 C0.99 0 1.98 0 3 0 C1.40907948 4.13639336 -1.60474918 7.23213248 -5 10 C-5.66 10 -6.32 10 -7 10 C-7 9.34 -7 8.68 -7 8 C-6.34 8 -5.68 8 -5 8 C-5.33 6.35 -5.66 4.7 -6 3 C-4.35 3 -2.7 3 -1 3 C-0.67 2.01 -0.34 1.02 0 0 Z " fill="#E772A0" transform="translate(273,263)"/>
<path d="M0 0 C2.97 0 5.94 0 9 0 C9 2.97 9 5.94 9 9 C8.34 9 7.68 9 7 9 C6.67 7.02 6.34 5.04 6 3 C4.02 2.34 2.04 1.68 0 1 C0 0.67 0 0.34 0 0 Z " fill="#1A1346" transform="translate(164,144)"/>
<path d="M0 0 C3.46124816 1.15374939 3.88312583 1.87701971 5.75 4.875 C6.19859375 5.57367188 6.6471875 6.27234375 7.109375 6.9921875 C8 9 8 9 7 12 C3.46730171 8.09543873 1.36144033 5.19822672 0 0 Z " fill="#E771A0" transform="translate(14,281)"/>
<path d="M0 0 C1.82421875 0.16796875 1.82421875 0.16796875 4 1 C5.51953125 3.36328125 5.51953125 3.36328125 6.8125 6.3125 C7.47185547 7.76076172 7.47185547 7.76076172 8.14453125 9.23828125 C9.02467991 12.07967441 9.05532187 13.27429137 8 16 C5.33333333 10.66666667 2.66666667 5.33333333 0 0 Z " fill="#E6749F" transform="translate(221,224)"/>
<path d="M0 0 C4.455 0.99 4.455 0.99 9 2 C7.68 2.33 6.36 2.66 5 3 C3.71563266 4.9837767 3.71563266 4.9837767 3 7 C1.68 7 0.36 7 -1 7 C-1 6.01 -1 5.02 -1 4 C-0.01 3.67 0.98 3.34 2 3 C1.34 2.67 0.68 2.34 0 2 C0 1.34 0 0.68 0 0 Z " fill="#2D2F7A" transform="translate(164,225)"/>
<path d="M0 0 C2.5 2.3125 2.5 2.3125 5 5 C5 5.99 5 6.98 5 8 C0.545 6.02 0.545 6.02 -4 4 C-4 3.34 -4 2.68 -4 2 C-2.68 1.34 -1.36 0.68 0 0 Z " fill="#EE6D9F" transform="translate(261,192)"/>
<path d="M0 0 C-0.33 1.65 -0.66 3.3 -1 5 C-0.34 5.33 0.32 5.66 1 6 C-2.3 6 -5.6 6 -9 6 C-7.68 5.34 -6.36 4.68 -5 4 C-4.67 3.34 -4.34 2.68 -4 2 C-5.32 1.67 -6.64 1.34 -8 1 C-2.25 0 -2.25 0 0 0 Z " fill="#526BE9" transform="translate(173,155)"/>
<path d="M0 0 C3.24992446 -0.05819424 6.49971435 -0.09366116 9.75 -0.125 C10.67039063 -0.14175781 11.59078125 -0.15851562 12.5390625 -0.17578125 C13.42851562 -0.18222656 14.31796875 -0.18867187 15.234375 -0.1953125 C16.05131836 -0.20578613 16.86826172 -0.21625977 17.70996094 -0.22705078 C20.21887518 0.02170084 21.83395625 0.74299871 24 2 C23.01 2.66 22.02 3.32 21 4 C20.34 3.34 19.68 2.68 19 2 C16.96939341 1.63105418 16.96939341 1.63105418 14.6484375 1.5859375 C13.79765625 1.54726563 12.946875 1.50859375 12.0703125 1.46875 C11.18085938 1.4378125 10.29140625 1.406875 9.375 1.375 C8.4778125 1.33632813 7.580625 1.29765625 6.65625 1.2578125 C4.4377073 1.16340643 2.21917597 1.07783252 0 1 C0 0.67 0 0.34 0 0 Z " fill="#DA6DB7" transform="translate(184,42)"/>
<path d="M0 0 C-3.85930302 2.57286868 -7.46409083 4.01034709 -12 5 C-14.21484375 4.546875 -14.21484375 4.546875 -16 4 C-14.08959948 3.1319092 -12.17139263 2.28098217 -10.25 1.4375 C-9.18265625 0.96183594 -8.1153125 0.48617188 -7.015625 -0.00390625 C-4.01630163 -0.9946154 -2.86578759 -1.16161779 0 0 Z " fill="#776AE5" transform="translate(228,294)"/>
<path d="M0 0 C1.875 0.1875 1.875 0.1875 4 1 C5.0625 3.375 5.0625 3.375 6 6 C7.52007842 7.77277259 7.52007842 7.77277259 9 9 C8.01 10.485 8.01 10.485 7 12 C5.83061933 10.18924982 4.66456267 8.37635257 3.5 6.5625 C2.8503125 5.55316406 2.200625 4.54382813 1.53125 3.50390625 C0 1 0 1 0 0 Z " fill="#E976A1" transform="translate(113,113)"/>
<path d="M0 0 C1.258125 -0.04125 2.51625 -0.0825 3.8125 -0.125 C4.52019531 -0.14820312 5.22789062 -0.17140625 5.95703125 -0.1953125 C8 0 8 0 11 2 C10.67 2.66 10.34 3.32 10 4 C9.34 3.67 8.68 3.34 8 3 C7.67 3.99 7.34 4.98 7 6 C4.525 5.01 4.525 5.01 2 4 C2.99 3.67 3.98 3.34 5 3 C5 2.34 5 1.68 5 1 C3.35 1 1.7 1 0 1 C0 0.67 0 0.34 0 0 Z " fill="#24246B" transform="translate(162,100)"/>
<path d="M0 0 C0 0.33 0 0.66 0 1 C-2.64 1.66 -5.28 2.32 -8 3 C-8.33 4.65 -8.66 6.3 -9 8 C-9.66 8 -10.32 8 -11 8 C-10.67 5.69 -10.34 3.38 -10 1 C-6.61981469 -0.04005702 -3.5219721 -0.08004482 0 0 Z " fill="#4857C2" transform="translate(172,65)"/>
<path d="M0 0 C0.66 1.32 1.32 2.64 2 4 C1.01 4.495 1.01 4.495 0 5 C0 6.65 0 8.3 0 10 C-1.98 10.99 -1.98 10.99 -4 12 C-3.71640113 10.5608866 -3.42278601 9.12374482 -3.125 7.6875 C-2.96257813 6.88699219 -2.80015625 6.08648437 -2.6328125 5.26171875 C-2 3 -2 3 0 0 Z " fill="#F06A9D" transform="translate(20,244)"/>
<path d="M0 0 C3.125 -0.1875 3.125 -0.1875 6 0 C4.68 0.33 3.36 0.66 2 1 C1.34 3.97 0.68 6.94 0 10 C-0.66 10 -1.32 10 -2 10 C-2.25 3.375 -2.25 3.375 0 0 Z " fill="#5569EC" transform="translate(156,64)"/>
<path d="M0 0 C1.32 0 2.64 0 4 0 C3.67 2.64 3.34 5.28 3 8 C2.34 6.68 1.68 5.36 1 4 C0.34 4 -0.32 4 -1 4 C-1 5.65 -1 7.3 -1 9 C-1.33 9 -1.66 9 -2 9 C-2.25 3.375 -2.25 3.375 0 0 Z " fill="#293286" transform="translate(158,65)"/>
<path d="M0 0 C4.29 0 8.58 0 13 0 C13 0.33 13 0.66 13 1 C11.02 1 9.04 1 7 1 C7 1.66 7 2.32 7 3 C4.36 2.67 1.72 2.34 -1 2 C-0.67 1.34 -0.34 0.68 0 0 Z " fill="#E869AD" transform="translate(153,305)"/>
<path d="M0 0 C0.99 0.33 1.98 0.66 3 1 C3.1875 3.375 3.1875 3.375 3 6 C2.01 6.66 1.02 7.32 0 8 C-1.4606285 5.35261084 -2 4.10551666 -2 1 C-1.34 0.67 -0.68 0.34 0 0 Z " fill="#526FFC" transform="translate(165,106)"/>
<path d="M0 0 C0.66 0 1.32 0 2 0 C2.33 1.65 2.66 3.3 3 5 C0.03 7.475 0.03 7.475 -3 10 C-3 6.13304322 -1.58090029 3.4911548 0 0 Z " fill="#6375E5" transform="translate(148,273)"/>
<path d="M0 0 C0.6484375 1.83984375 0.6484375 1.83984375 1 4 C-1.375 6.5625 -1.375 6.5625 -4 9 C-4.33 9.99 -4.66 10.98 -5 12 C-5.99 12.33 -6.98 12.66 -8 13 C-6.40956621 7.91061189 -3.2553049 4.12543357 0 0 Z " fill="#E16E9B" transform="translate(29,231)"/>
<path d="M0 0 C1.0169313 2.65498232 1.13022151 3.69155375 0.00390625 6.359375 C-0.47175781 7.14828125 -0.94742188 7.9371875 -1.4375 8.75 C-2.14712891 9.94882813 -2.14712891 9.94882813 -2.87109375 11.171875 C-3.24363281 11.77515625 -3.61617188 12.3784375 -4 13 C-5 10 -5 10 -4.00390625 7.51953125 C-3.52824219 6.62621094 -3.05257812 5.73289062 -2.5625 4.8125 C-2.08941406 3.91144531 -1.61632812 3.01039062 -1.12890625 2.08203125 C-0.75636719 1.39496094 -0.38382812 0.70789063 0 0 Z " fill="#E279A0" transform="translate(115,64)"/>
<path d="M0 0 C0.33 1.32 0.66 2.64 1 4 C-1.64 4 -4.28 4 -7 4 C-6.67 3.01 -6.34 2.02 -6 1 C-3 0 -3 0 0 0 Z " fill="#1C123E" transform="translate(165,273)"/>
<path d="M0 0 C0.33 0 0.66 0 1 0 C1.3125 2.3125 1.3125 2.3125 1 5 C-1.375 6.875 -1.375 6.875 -4 8 C-4.66 7.67 -5.32 7.34 -6 7 C-5.02433888 5.83040013 -4.044375 4.66438823 -3.0625 3.5 C-2.51722656 2.8503125 -1.97195312 2.200625 -1.41015625 1.53125 C-0.71212891 0.77328125 -0.71212891 0.77328125 0 0 Z " fill="#E56F9F" transform="translate(36,223)"/>
<path d="M0 0 C1.32 0 2.64 0 4 0 C4 1.98 4 3.96 4 6 C2.68 6 1.36 6 0 6 C0 4.02 0 2.04 0 0 Z " fill="#464EB0" transform="translate(166,146)"/>
<path d="M0 0 C0.99 0.66 1.98 1.32 3 2 C1.87926138 2.83905565 0.75325453 3.67107831 -0.375 4.5 C-1.00148438 4.9640625 -1.62796875 5.428125 -2.2734375 5.90625 C-4 7 -4 7 -6 7 C-6 6.01 -6 5.02 -6 4 C-3 1.8125 -3 1.8125 0 0 Z " fill="#E970A4" transform="translate(262,273)"/>
<path d="M0 0 C1.95216435 3.90432869 2.50639991 6.72213252 3 11 C2.01 11.33 1.02 11.66 0 12 C0 8.04 0 4.08 0 0 Z " fill="#6C74DE" transform="translate(199,268)"/>
<path d="M0 0 C0 1.65 0 3.3 0 5 C-2.31 5 -4.62 5 -7 5 C-2.25 0 -2.25 0 0 0 Z " fill="#4F5FD3" transform="translate(174,269)"/>
<path d="M0 0 C0.33 0 0.66 0 1 0 C1.125 5.75 1.125 5.75 0 8 C-2.64 8 -5.28 8 -8 8 C-5.4345406 5.4345406 -3.52313332 5.45953913 0 5 C0 3.35 0 1.7 0 0 Z " fill="#4553C2" transform="translate(174,228)"/>
<path d="M0 0 C0.66 0 1.32 0 2 0 C2 0.66 2 1.32 2 2 C2.66 2.33 3.32 2.66 4 3 C-2.5 6 -2.5 6 -7 6 C-6.67 5.01 -6.34 4.02 -6 3 C-6 3.66 -6 4.32 -6 5 C-5.01 4.34 -4.02 3.68 -3 3 C-2.01 3 -1.02 3 0 3 C0 2.01 0 1.02 0 0 Z " fill="#191958" transform="translate(164,232)"/>
<path d="M0 0 C0.33 0.99 0.66 1.98 1 3 C-0.125 5.1875 -0.125 5.1875 -2 7 C-4.6875 7.25 -4.6875 7.25 -7 7 C-4.66666667 4.66666667 -2.33333333 2.33333333 0 0 Z " fill="#6173DC" transform="translate(143,283)"/>
<path d="M0 0 C4.43458973 1.3937282 6.87378374 3.60582235 10 7 C7.5625 6.625 7.5625 6.625 5 6 C4.67 5.34 4.34 4.68 4 4 C1.97536745 3.34786708 1.97536745 3.34786708 0 3 C0 2.01 0 1.02 0 0 Z " fill="#E4759E" transform="translate(243,39)"/>
<path d="M0 0 C0.66 0.33 1.32 0.66 2 1 C2.625 3.5625 2.625 3.5625 3 6 C2.01 6 1.02 6 0 6 C-1.6875 3.5 -1.6875 3.5 -3 1 C-2.01 0.67 -1.02 0.34 0 0 Z " fill="#EC6EA0" transform="translate(219,216)"/>
<path d="M0 0 C3.3 0 6.6 0 10 0 C10 0.33 10 0.66 10 1 C8.72125 1.0825 7.4425 1.165 6.125 1.25 C3.94666582 1.45869931 3.94666582 1.45869931 2 2 C0.4100567 3.92064793 0.4100567 3.92064793 0 6 C-1 4 -1 4 0 0 Z " fill="#414DB7" transform="translate(158,99)"/>
<path d="M0 0 C1.32 0.33 2.64 0.66 4 1 C3.01 1.495 3.01 1.495 2 2 C1.34444881 4.52733235 1.34444881 4.52733235 1 7 C0.01 7 -0.98 7 -2 7 C-2 5.35 -2 3.7 -2 2 C-1.34 2 -0.68 2 0 2 C0 1.34 0 0.68 0 0 Z " fill="#1C1755" transform="translate(166,86)"/>
<path d="M0 0 C0.625 1.8125 0.625 1.8125 1 4 C0.01 5.485 0.01 5.485 -1 7 C-1.39013716 8.9896995 -1.73202649 10.99019869 -2 13 C-2.33 13 -2.66 13 -3 13 C-3.0270043 11.54176788 -3.04639787 10.08339325 -3.0625 8.625 C-3.07410156 7.81289062 -3.08570313 7.00078125 -3.09765625 6.1640625 C-3 4 -3 4 -2 2 C-1.34 2 -0.68 2 0 2 C0 1.34 0 0.68 0 0 Z " fill="#D271B5" transform="translate(149,58)"/>
<path d="M0 0 C0.66 0.33 1.32 0.66 2 1 C-0.74395564 3.94721162 -3.38337216 6.19168608 -7 8 C-7.66 7.67 -8.32 7.34 -9 7 C-6.03 4.69 -3.06 2.38 0 0 Z " fill="#DE78A2" transform="translate(134,45)"/>
<path d="M0 0 C-1.57725347 0.70133599 -3.16211333 1.385583 -4.75 2.0625 C-5.63171875 2.44535156 -6.5134375 2.82820313 -7.421875 3.22265625 C-10.15256309 4.04600008 -11.36901347 3.9773992 -14 3 C-12.42274653 2.29866401 -10.83788667 1.614417 -9.25 0.9375 C-7.92742187 0.36322266 -7.92742187 0.36322266 -6.578125 -0.22265625 C-3.84743691 -1.04600008 -2.63098653 -0.9773992 0 0 Z " fill="#D56BBB" transform="translate(171,33)"/>
<path d="M0 0 C-0.60183749 2.02045442 -1.27306096 4.02111039 -2 6 C-2.99 6.495 -2.99 6.495 -4 7 C-4 5.68 -4 4.36 -4 3 C-4.66 2.67 -5.32 2.34 -6 2 C-2.25 0 -2.25 0 0 0 Z " fill="#F072A2" transform="translate(66,217)"/>
<path d="M0 0 C3.3 0 6.6 0 10 0 C7 3 7 3 4.4375 3.375 C3.633125 3.25125 2.82875 3.1275 2 3 C1.34 2.01 0.68 1.02 0 0 Z " fill="#726EDB" transform="translate(137,38)"/>
<path d="M0 0 C0.33 1.32 0.66 2.64 1 4 C-1.375 5.5625 -1.375 5.5625 -4 7 C-4.66 6.67 -5.32 6.34 -6 6 C-4.02 4.02 -2.04 2.04 0 0 Z " fill="#E974A1" transform="translate(226,263)"/>
<path d="M0 0 C0.99 0.33 1.98 0.66 3 1 C3 3.31 3 5.62 3 8 C2.01 8.495 2.01 8.495 1 9 C0.67 6.03 0.34 3.06 0 0 Z " fill="#1D1341" transform="translate(170,246)"/>
<path d="M0 0 C0.99 0.33 1.98 0.66 3 1 C1.6875 3 1.6875 3 0 5 C-0.99 5 -1.98 5 -3 5 C-2.625 3.0625 -2.625 3.0625 -2 1 C-1.34 0.67 -0.68 0.34 0 0 Z " fill="#DD85AA" transform="translate(90,181)"/>
<path d="M0 0 C1.5 1.375 1.5 1.375 3 3 C3 3.66 3 4.32 3 5 C4.65 5 6.3 5 8 5 C8 5.33 8 5.66 8 6 C2.25 7.125 2.25 7.125 0 6 C0 4.02 0 2.04 0 0 Z " fill="#526BEC" transform="translate(156,74)"/>
<path d="M0 0 C3.63 0.66 7.26 1.32 11 2 C11 2.33 11 2.66 11 3 C8.36 3.33 5.72 3.66 3 4 C2.67 3.01 2.34 2.02 2 1 C1.34 0.67 0.68 0.34 0 0 Z " fill="#E2749F" transform="translate(102,288)"/>
<path d="M0 0 C-3.66291938 2.47785723 -6.6109185 3.48964169 -11 4 C-10.67 3.34 -10.34 2.68 -10 2 C-9.01 2 -8.02 2 -7 2 C-7 1.34 -7 0.68 -7 0 C-2.25 -1.125 -2.25 -1.125 0 0 Z " fill="#746BE4" transform="translate(199,281)"/>
<path d="M0 0 C0.99 0 1.98 0 3 0 C3 2.31 3 4.62 3 7 C2.01 6.67 1.02 6.34 0 6 C0 4.02 0 2.04 0 0 Z " fill="#4D5AC2" transform="translate(167,210)"/>
<path d="M0 0 C4.875 4.625 4.875 4.625 6 8 C5.34 8 4.68 8 4 8 C4 7.34 4 6.68 4 6 C3.01 5.67 2.02 5.34 1 5 C0.67 3.35 0.34 1.7 0 0 Z " fill="#E4739F" transform="translate(267,200)"/>
<path d="M0 0 C5.875 3.75 5.875 3.75 7 6 C3 6 3 6 1.25 4.6875 C0 3 0 3 0 0 Z " fill="#E17FA7" transform="translate(200,136)"/>
<path d="M0 0 C1.85776765 3.13498292 2.20140476 5.37471432 2 9 C0.68 8.34 -0.64 7.68 -2 7 C-1.34 6.67 -0.68 6.34 0 6 C0 4.02 0 2.04 0 0 Z " fill="#20256D" transform="translate(160,107)"/>
</svg>
